<svg width="1080" height="250" xmlns="http://www.w3.org/2000/svg" xml:space="preserve" version="1.1">
 <desc>Created with Fabric.js 5.2.4</desc>

 <g>
  <title>Layer 1</title>
  <g id="de838e8f-924d-4009-9142-67ea50cb4d30" transform="matrix(1 0 0 1 540 540)"/>
  <g id="09946f7b-2f86-407b-a9cf-6ee69d45f8a7" transform="matrix(1 0 0 1 540 540)"/>
  <g id="svg_2" transform="matrix(4.91 0 0 4.91 540 120.26)">
   <path id="svg_3" fill-rule=" nonzero" fill=" rgb(114,147,67)" stroke-miterlimit="4" stroke-linejoin=" miter" stroke-dashoffset="0" stroke-dasharray=" none" stroke=" none" stroke-linecap=" butt" d="m-86.21634,17.27633l-11.35,0q-1.5,0 -2.55,-1.05q-1.05,-1.05 -1.05,-2.55l0,0l0,-27.85q0,-1.45 1.05,-2.5q1.05,-1.05 2.55,-1.05l0,0l11.35,0q1.5,0 2.55,1.05q1.05,1.05 1.05,2.5l0,0l0,7.8l-4.65,-1.05l0,-3.9q0,-0.75 -0.52,-1.28q-0.53,-0.52 -1.28,-0.52l0,0l-5.65,0q-0.75,0 -1.27,0.52q-0.53,0.53 -0.53,1.28l0,0l0,22.15q0,0.75 0.53,1.27q0.52,0.53 1.27,0.53l0,0l5.65,0q0.75,0 1.28,-0.53q0.52,-0.52 0.52,-1.27l0,0l0,-4.85l-4.6,0l1.05,-4.65l8.2,0l0,12.35q0,1.5 -1.05,2.55q-1.05,1.05 -2.55,1.05l0,0zm12.45,0.05l-4.65,0l7.05,-35l4.55,0l6.95,35l-4.65,0l-1.35,-6.55l-6.65,0l-1.25,6.55zm4.7,-23.6l-2.55,12.45l4.95,0l-2.4,-12.45zm16.45,23.55l-4.65,0l0,-35l15,0q1.45,0 2.5,1.05q1.05,1.05 1.05,2.55l0,0l0,10.75q0,1.5 -1.05,2.55q-1.05,1.05 -2.5,1.05l0,0l-1.05,0l4.6,17.05l-4.6,0l-4.65,-17.05l-4.65,0l0,17.05zm0,-30.35l0,8.65l7.5,0q0.7,0 1.25,-0.53q0.55,-0.52 0.55,-1.27l0,0l0,-5.05q0,-0.75 -0.55,-1.28q-0.55,-0.52 -1.25,-0.52l0,0l-7.5,0zm22.64,30.35l-4.65,0l0,-35l4.65,0l9.3,23.35l0,-23.35l4.65,0l0,35l-4.65,0l-9.3,-23.35l0,23.35zm32.1,0l-11.35,0q-1.5,0 -2.55,-1.05q-1.05,-1.05 -1.05,-2.55l0,0l0,-31.4l4.65,0l0,28.6q0,0.7 0.53,1.22q0.52,0.53 1.27,0.53l0,0l5.65,0q0.75,0 1.27,-0.53q0.53,-0.52 0.53,-1.22l0,0l0,-28.6l4.65,0l0,31.4q0,1.5 -1.05,2.55q-1.05,1.05 -2.55,1.05l0,0zm22.15,0l-11.35,0q-1.5,0 -2.55,-1.05q-1.05,-1.05 -1.05,-2.55l0,0l0,-7.75l4.65,1.05l0,3.85q0,0.75 0.52,1.27q0.53,0.53 1.23,0.53l0,0l5.7,0q0.75,0 1.27,-0.53q0.53,-0.52 0.53,-1.27l0,0l0,-8.8q0,-0.75 -0.53,-1.28q-0.52,-0.52 -1.27,-0.52l0,0l-8.5,0q-1.5,0 -2.55,-1.05q-1.05,-1.05 -1.05,-2.55l0,0l0,-10.75q0,-1.5 1.05,-2.55q1.05,-1.05 2.55,-1.05l0,0l11.35,0q1.5,0 2.55,1.05q1.05,1.05 1.05,2.55l0,0l0,5.4l-4.65,-1.1l0,-1.45q0,-0.75 -0.53,-1.28q-0.52,-0.52 -1.27,-0.52l0,0l-5.7,0q-0.7,0 -1.23,0.52q-0.52,0.53 -0.52,1.28l0,0l0,5.05q0,0.75 0.52,1.27q0.53,0.53 1.23,0.53l0,0l8.55,0q1.5,0 2.55,1.05q1.05,1.05 1.05,2.55l0,0l0,14.5q0,1.5 -1.05,2.55q-1.05,1.05 -2.55,1.05l0,0zm28.25,0l-18.55,0l6.75,-17.05l-2.65,0l1.85,-4.65l2.65,0l3.45,-8.65l-12.05,0l0,-4.65l18.55,0l-5.3,13.3l2.7,0l-1.8,4.65l-2.75,0l-4.95,12.4l12.1,0l0,4.65zm24.79,0l-18.6,0l0,-35l18.6,0l0,4.6l-13.95,0l0,8.7l9.3,0l-1.05,4.65l-8.25,0l0,12.4l13.95,0l0,4.65zm10.35,0l-4.65,0l0,-35l4.65,0l0,23.35l9.25,-23.35l4.65,0l-6.95,17.5l6.95,17.5l-4.65,0l-4.6,-11.65l-4.65,11.65z" vector-effect="non-scaling-stroke"/>
  </g>
 </g>
</svg>