<svg xmlns="http://www.w3.org/2000/svg" width="1080" height="700" xml:space="preserve" version="1.1" style=""><rect id="backgroundrect" width="100%" height="100%" x="0" y="0" fill="none" stroke="none"/>
 <desc>Created with Fabric.js 5.2.4</desc>

 <g style="" class="currentLayer">
  <title>Layer 1</title>
  <g id="de838e8f-924d-4009-9142-67ea50cb4d30"/>
 <g class="selected"><g id="svg_2" class="">
   <path id="svg_3" fill-rule=" nonzero" fill=" rgb(114,147,67)" stroke-miterlimit="4" stroke-linejoin=" miter" stroke-dashoffset="0" stroke-dasharray=" none" stroke=" none" stroke-linecap=" butt" d="m769.6156333795288,312.523848805027 c-2.54241,-3.95433 -6.47766,-6.677999999999999 -11.07594,-7.66539 c-4.61259,-0.99693 -9.311039999999998,-0.13833 -13.2606,2.41362 l-22.12326,14.2623 l0,-12.47355 c0,-2.4613199999999997 -1.99386,-4.4551799999999995 -4.45995,-4.4551799999999995 l-321.11163,0 c-2.46609,0 -4.45995,1.99386 -4.45995,4.4551799999999995 l-0.03816000000000001,11.018699999999999 l-19.876589999999997,-12.812219999999998 c-3.95433,-2.5519499999999997 -8.66232,-3.41055 -13.265369999999999,-2.4231599999999998 c-4.59828,0.99693 -8.53353,3.7205999999999997 -11.085479999999999,7.67016 c-2.54241,3.95433 -3.40578,8.657549999999999 -2.41362,13.2606 c0.9921599999999998,4.59828 3.71583,8.53353 7.67016,11.07594 l38.818259999999995,25.03296 l0,79.00550999999999 c0,0.1431 0.0047700000000000025,0.2862 0.01908000000000001,0.4197600000000002 l0.4102200000000002,4.335929999999999 c0.10017000000000002,26.77401 18.493290000000002,49.259789999999995 43.282979999999995,55.75176 c-1.20204,2.4326999999999996 -1.908,5.09436 -1.908,7.8705 c0,9.830969999999999 7.98498,17.811179999999997 17.80641,17.811179999999997 l210.80060999999998,0 c9.8262,0 17.811179999999997,-7.99452 17.811179999999997,-17.811179999999997 c0,-2.72844 -0.6964200000000004,-5.366249999999999 -1.8698400000000006,-7.7751 c25.052039999999998,-6.3679499999999996 43.65981,-29.05407 43.65981,-56.061809999999994 l0,-81.87228 l41.40837,-26.70246 c3.95433,-2.54718 6.673229999999999,-6.47766 7.67016,-11.07594 c1.0017,-4.59351 0.14787000000000003,-9.30627 -2.4088499999999997,-13.255829999999998 zm-414.46052999999995,11.38599 c-0.4960800000000002,-2.27529 -0.07155,-4.60305 1.1925000000000001,-6.55875 c1.25928,-1.9557000000000002 3.2054400000000003,-3.2960700000000007 5.47596,-3.79215 c2.28483,-0.4960800000000002 4.60782,-0.06678000000000003 6.55875,1.20204 l24.660899999999998,15.893639999999998 l-0.08586000000000003,20.673179999999995 l-34.024409999999996,-21.941999999999997 c-1.9413900000000002,-1.26882 -3.2913000000000006,-3.2102100000000005 -3.7778400000000003,-5.47596 zm314.92494,179.54756999999998 c1.39761,1.6170300000000002 2.17035,3.6824399999999997 2.17035,5.828939999999999 c0,4.9131 -3.99726,8.910359999999999 -8.905589999999998,8.910359999999999 l-210.80060999999998,0 c-4.90356,0 -8.90082,-3.99249 -8.90082,-8.910359999999999 c0,-2.26098 0.84906,-4.41702 2.3850000000000002,-6.07221 c0.03816000000000001,-0.03816000000000001 0.04770000000000001,-0.08586000000000003 0.07632000000000004,-0.11925000000000006 c1.70289,0.14787000000000003 3.42963,0.26235 5.16114,0.26235 l213.80570999999998,0 c1.6122600000000002,0 3.1863600000000005,-0.10971000000000004 4.77,-0.24327000000000004 c0.07155,0.10494000000000002 0.14787000000000003,0.23373000000000008 0.23850000000000007,0.3434400000000002 zm44.16543,-143.73917999999998 c-0.12402000000000005,0.4102200000000002 -0.19080000000000008,0.8442900000000002 -0.19080000000000008,1.29267 l0,84.42899999999999 c0,27.017279999999996 -21.975389999999997,48.99267 -48.99267,48.99267 l-213.79616999999996,0 c-15.216299999999999,0 -28.844189999999998,-6.97851 -37.83564,-17.906579999999998 l63.660419999999995,0 c2.4613199999999997,0 4.4551799999999995,-1.9843199999999999 4.4551799999999995,-4.4551799999999995 c0,-2.4613199999999997 -1.99386,-4.4551799999999995 -4.4551799999999995,-4.4551799999999995 l-68.28732,0 c-0.37683000000000016,0 -0.7393500000000003,0.06201000000000004 -1.09233,0.14787000000000003 c-2.8143000000000002,-5.47596 -4.6507499999999995,-11.53863 -5.2231499999999995,-17.96859 l47.88126,0 c2.4613199999999997,0 4.4551799999999995,-1.99386 4.4551799999999995,-4.45995 c0,-2.4613199999999997 -1.99386,-4.4551799999999995 -4.4551799999999995,-4.4551799999999995 l-48.50613,0 l-0.023850000000000017,-0.20034000000000007 l0,-17.601300000000002 l21.7989,0 c2.4613199999999997,0 4.45995,-1.99386 4.45995,-4.45995 c0,-2.46609 -1.99863,-4.45995 -4.45995,-4.45995 l-21.7989,0 l0,-54.54017999999999 l0.19080000000000008,-31.3389 l0,-14.76315 l312.21557999999993,0 l0,46.20222 zm49.083299999999994,-35.81793 c-0.4960800000000002,2.2800599999999998 -1.8364500000000001,4.22145 -3.79215,5.480729999999999 l-36.39033,23.46363 l0,-20.72088 l26.950499999999998,-17.377110000000002 c1.9557000000000002,-1.2640500000000001 4.27869,-1.68858 6.55398,-1.1925000000000001 c2.27052,0.4960800000000002 4.21668,1.8364500000000001 5.47596,3.79215 c1.25928,1.9557000000000002 1.6933500000000001,4.28823 1.20204,6.55398 z" vector-effect="non-scaling-stroke" stroke-width="0"/>
  </g><g id="svg_4" class="">
   <path id="svg_5" fill-rule=" nonzero" fill=" rgb(114,147,67)" stroke-miterlimit="4" stroke-linejoin=" miter" stroke-dashoffset="0" stroke-dasharray=" none" stroke=" none" stroke-linecap=" butt" d="m416.4981905795288,167.845268805027 c1.6456500000000007,0 2.9621700000000004,-1.3308300000000002 2.9621700000000004,-2.9717100000000003 l0,-13.1652 c0,-1.6408800000000006 -1.3165200000000001,-2.9717100000000003 -2.9621700000000004,-2.9717100000000003 c-1.6408800000000006,0 -2.9717100000000003,1.32606 -2.9717100000000003,2.9717100000000003 l0,13.1652 c0,1.6361100000000004 1.3308300000000002,2.9717100000000003 2.9717100000000003,2.9717100000000003 z" vector-effect="non-scaling-stroke" stroke-width="0"/>
  </g><g id="svg_6" class="">
   <path id="svg_7" fill-rule=" nonzero" fill=" rgb(114,147,67)" stroke-miterlimit="4" stroke-linejoin=" miter" stroke-dashoffset="0" stroke-dasharray=" none" stroke=" none" stroke-linecap=" butt" d="m418.49820387952883,206.34913600502702 c1.6456500000000007,0 2.9621700000000004,-1.3308300000000002 2.9621700000000004,-2.96694 l0,-13.16043 c0,-1.6408800000000006 -1.3165200000000001,-2.9717100000000003 -2.9621700000000004,-2.9717100000000003 c-1.6408800000000006,0 -2.9717100000000003,1.3308300000000002 -2.9717100000000003,2.9717100000000003 l0,13.16043 c0,1.6361100000000004 1.3308300000000002,2.96694 2.9717100000000003,2.96694 z" vector-effect="non-scaling-stroke" stroke-width="0"/>
  </g><g id="svg_8" class="">
   <path id="svg_9" fill-rule=" nonzero" fill=" rgb(114,147,67)" stroke-miterlimit="4" stroke-linejoin=" miter" stroke-dashoffset="0" stroke-dasharray=" none" stroke=" none" stroke-linecap=" butt" d="m426.6891105795288,178.05434880502702 c0,1.6456500000000007 1.32606,2.9717100000000003 2.9717100000000003,2.9717100000000003 l13.16043,0 c1.6408800000000006,0 2.96694,-1.32606 2.96694,-2.9717100000000003 c0,-1.6408800000000006 -1.32606,-2.9717100000000003 -2.96694,-2.9717100000000003 l-13.16043,0 c-1.6456500000000007,0 -2.9717100000000003,1.3356000000000001 -2.9717100000000003,2.9717100000000003 z" vector-effect="non-scaling-stroke" stroke-width="0"/>
  </g><g id="svg_10" class="">
   <path id="svg_11" fill-rule=" nonzero" fill=" rgb(114,147,67)" stroke-miterlimit="4" stroke-linejoin=" miter" stroke-dashoffset="0" stroke-dasharray=" none" stroke=" none" stroke-linecap=" butt" d="m390.1474305795288,181.02605880502702 l13.1652,0 c1.6408800000000006,0 2.9621700000000004,-1.32606 2.9621700000000004,-2.9717100000000003 c0,-1.6408800000000006 -1.32129,-2.9717100000000003 -2.9621700000000004,-2.9717100000000003 l-13.1652,0 c-1.6408800000000006,0 -2.96694,1.3308300000000002 -2.96694,2.9717100000000003 c0,1.6456500000000007 1.3308300000000002,2.9717100000000003 2.96694,2.9717100000000003 z" vector-effect="non-scaling-stroke" stroke-width="0"/>
  </g><g id="svg_12" class="">
   <path id="svg_13" fill-rule=" nonzero" fill=" rgb(114,147,67)" stroke-miterlimit="4" stroke-linejoin=" miter" stroke-dashoffset="0" stroke-dasharray=" none" stroke=" none" stroke-linecap=" butt" d="m401.2368605795288,166.99538880502703 c0.5771700000000002,0.5819400000000002 1.34037,0.8776800000000002 2.09403,0.8776800000000002 c0.75843,0 1.5168599999999999,-0.29574000000000006 2.0988,-0.8729100000000003 c1.15911,-1.15911 1.15911,-3.0432600000000005 0.0047700000000000025,-4.1976 l-4.917869999999999,-4.917869999999999 c-1.15434,-1.16388 -3.0432600000000005,-1.15911 -4.1976,0 c-1.15911,1.15911 -1.15911,3.0384900000000004 -0.0047700000000000025,4.1976 l4.9226399999999995,4.9131 z" vector-effect="non-scaling-stroke" stroke-width="0"/>
  </g><g id="svg_14" class="">
   <path id="svg_15" fill-rule=" nonzero" fill=" rgb(114,147,67)" stroke-miterlimit="4" stroke-linejoin=" miter" stroke-dashoffset="0" stroke-dasharray=" none" stroke=" none" stroke-linecap=" butt" d="m427.5294505795288,189.105148805027 c-1.15434,1.15911 -1.15434,3.0432600000000005 0,4.1976 l4.917869999999999,4.917869999999999 c0.5771700000000002,0.5819400000000002 1.3308300000000002,0.8776800000000002 2.09403,0.8776800000000002 c0.7632000000000003,0 1.5168599999999999,-0.29574000000000006 2.0988,-0.8776800000000002 c1.15911,-1.15911 1.15911,-3.0384900000000004 0,-4.1976 l-4.9131,-4.917869999999999 c-1.15911,-1.15911 -3.0384900000000004,-1.15911 -4.1976,0 z" vector-effect="non-scaling-stroke" stroke-width="0"/>
  </g><g id="svg_16" class="">
   <path id="svg_17" fill-rule=" nonzero" fill=" rgb(114,147,67)" stroke-miterlimit="4" stroke-linejoin=" miter" stroke-dashoffset="0" stroke-dasharray=" none" stroke=" none" stroke-linecap=" butt" d="m429.6330205795288,167.88306880502702 c0.75843,0 1.5120900000000002,-0.29574000000000006 2.0988,-0.8729100000000003 l4.9131,-4.9131 c1.15911,-1.15434 1.15911,-3.0384900000000004 0,-4.1976 c-1.15911,-1.16388 -3.0432600000000005,-1.15911 -4.20237,0 l-4.917869999999999,4.908329999999999 c-1.15911,1.15911 -1.15911,3.0384900000000004 0,4.1976 c0.5819400000000002,0.5819400000000002 1.34514,0.8776800000000002 2.10834,0.8776800000000002 z" vector-effect="non-scaling-stroke" stroke-width="0"/>
  </g><g id="svg_18" class="">
   <path id="svg_19" fill-rule=" nonzero" fill=" rgb(114,147,67)" stroke-miterlimit="4" stroke-linejoin=" miter" stroke-dashoffset="0" stroke-dasharray=" none" stroke=" none" stroke-linecap=" butt" d="m401.2268605795288,189.115148805027 l-4.908329999999999,4.9131 c-1.15911,1.15911 -1.15911,3.0384900000000004 0,4.1976 c0.5771700000000002,0.5819400000000002 1.34037,0.8729100000000003 2.09403,0.8729100000000003 c0.7536600000000003,0 1.5168599999999999,-0.2909700000000001 2.09403,-0.8729100000000003 l4.9131,-4.90356 c1.15911,-1.16388 1.15911,-3.0432600000000005 0,-4.20237 c-1.15911,-1.15911 -3.0384900000000004,-1.16388 -4.19283,-0.0047700000000000025 z" vector-effect="non-scaling-stroke" stroke-width="0"/>
  </g><g id="svg_20" class="">
   <path id="svg_21" fill-rule=" nonzero" fill=" rgb(114,147,67)" stroke-miterlimit="4" stroke-linejoin=" miter" stroke-dashoffset="0" stroke-dasharray=" none" stroke=" none" stroke-linecap=" butt" d="m471.0852605795288,276.526948805027 c8.88651,0 16.12737,-7.236089999999999 16.12737,-16.12737 c0,-8.89605 -7.24086,-16.13214 -16.12737,-16.13214 c-8.89605,0 -16.13214,7.24086 -16.13214,16.13214 c0,8.89128 7.236089999999999,16.12737 16.13214,16.12737 zm0,-26.325629999999997 c5.619059999999999,0 10.183949999999998,4.5744299999999996 10.183949999999998,10.193489999999999 c0,5.619059999999999 -4.56489,10.18872 -10.183949999999998,10.18872 c-5.6286000000000005,0 -10.193489999999999,-4.56966 -10.193489999999999,-10.18872 c0,-5.619059999999999 4.56489,-10.193489999999999 10.193489999999999,-10.193489999999999 z" vector-effect="non-scaling-stroke" stroke-width="0"/>
  </g><g id="svg_22" class="">
   <path id="svg_23" fill-rule=" nonzero" fill=" rgb(114,147,67)" stroke-miterlimit="4" stroke-linejoin=" miter" stroke-dashoffset="0" stroke-dasharray=" none" stroke=" none" stroke-linecap=" butt" d="m578.0586505795288,243.33871880502699 c14.424479999999999,0 26.163449999999997,-11.738969999999998 26.163449999999997,-26.17299 c0,-14.424479999999999 -11.738969999999998,-26.168219999999998 -26.163449999999997,-26.168219999999998 c-14.434019999999999,0 -26.182529999999996,11.738969999999998 -26.182529999999996,26.168219999999998 c-0.009540000000000009,14.434019999999999 11.738969999999998,26.17299 26.182529999999996,26.17299 zm0,-46.412099999999995 c11.15226,0 20.2248,9.08208 20.2248,20.23434 c0,11.161799999999998 -9.07254,20.23434 -20.2248,20.23434 c-11.16657,0 -20.23911,-9.07254 -20.23911,-20.23434 c-0.009540000000000009,-11.14749 9.07254,-20.23434 20.23911,-20.23434 z" vector-effect="non-scaling-stroke" stroke-width="0"/>
  </g><g id="svg_24" class="">
   <path id="svg_25" fill-rule=" nonzero" fill=" rgb(114,147,67)" stroke-miterlimit="4" stroke-linejoin=" miter" stroke-dashoffset="0" stroke-dasharray=" none" stroke=" none" stroke-linecap=" butt" d="m608.9848005795288,196.219338805027 c5.49027,0 9.95499,-4.47426 9.95499,-9.964529999999998 c0,-5.49027 -4.46472,-9.95499 -9.95499,-9.95499 c-5.499809999999999,0 -9.964529999999998,4.4694899999999995 -9.964529999999998,9.95499 c0,5.49504 4.46472,9.964529999999998 9.964529999999998,9.964529999999998 zm0,-15.469109999999999 c3.0432600000000005,0 5.499809999999999,2.4756299999999998 5.499809999999999,5.504579999999999 c0,3.0384900000000004 -2.47086,5.5093499999999995 -5.499809999999999,5.5093499999999995 c-3.0432600000000005,0 -5.5093499999999995,-2.4804 -5.5093499999999995,-5.5093499999999995 c0,-3.0432600000000005 2.46609,-5.504579999999999 5.5093499999999995,-5.504579999999999 z" vector-effect="non-scaling-stroke" stroke-width="0"/>
  </g><g id="svg_26" class="">
   <path id="svg_27" fill-rule=" nonzero" fill=" rgb(114,147,67)" stroke-miterlimit="4" stroke-linejoin=" miter" stroke-dashoffset="0" stroke-dasharray=" none" stroke=" none" stroke-linecap=" butt" d="m566.1395005795288,217.98675880502702 c0.10017000000000002,0 0.21465000000000004,0 0.31959000000000015,-0.01908000000000001 c1.2163499999999998,-0.17649000000000006 2.06541,-1.30221 1.8889200000000006,-2.51856 c-0.24327000000000004,-1.7219700000000002 0.40068000000000015,-3.62997 1.7792100000000002,-5.213609999999999 c1.29744,-1.5073200000000002 3.05757,-2.45178 4.55535,-2.45178 c1.2306599999999999,0 2.2275899999999997,-0.99693 2.2275899999999997,-2.2275899999999997 c0,-1.2306599999999999 -0.99693,-2.2275899999999997 -2.2275899999999997,-2.2275899999999997 c-2.79522,0 -5.75739,1.4882400000000002 -7.9182,3.9829499999999998 c-2.2275899999999997,2.5662599999999998 -3.2626800000000005,5.76216 -2.82384,8.76726 c0.17172,1.11618 1.11141,1.908 2.19897,1.908 z" vector-effect="non-scaling-stroke" stroke-width="0"/>
  </g><g id="svg_28" class="">
   <circle id="svg_29" fill-rule=" nonzero" fill=" rgb(114,147,67)" stroke-miterlimit="4" stroke-linejoin=" miter" stroke-dashoffset="0" stroke-linecap=" butt" stroke-dasharray=" none" stroke=" none" r="0.6100000143051147" cy="0.22542322956542904" cx="3.8321950900479465" vector-effect="non-scaling-stroke" transform="matrix(4.77,0,0,4.77,549.87,223.27) " stroke-width="0"/>
  </g><g id="svg_30" class="">
   <path id="svg_31" fill-rule=" nonzero" fill=" rgb(114,147,67)" stroke-miterlimit="4" stroke-linejoin=" miter" stroke-dashoffset="0" stroke-dasharray=" none" stroke=" none" stroke-linecap=" butt" d="m669.1157205795288,270.72984880502696 c1.23543,0 2.23236,-0.99693 2.23236,-2.2275899999999997 l0,-6.587369999999999 c0,-1.2306599999999999 -0.99693,-2.2275899999999997 -2.23236,-2.2275899999999997 c-1.2306599999999999,0 -2.2275899999999997,0.99693 -2.2275899999999997,2.2275899999999997 l0,6.587369999999999 c0.014310000000000007,1.2306599999999999 1.00647,2.2275899999999997 2.2275899999999997,2.2275899999999997 z" vector-effect="non-scaling-stroke" stroke-width="0"/>
  </g><g id="svg_32" class="">
   <path id="svg_33" fill-rule=" nonzero" fill=" rgb(114,147,67)" stroke-miterlimit="4" stroke-linejoin=" miter" stroke-dashoffset="0" stroke-dasharray=" none" stroke=" none" stroke-linecap=" butt" d="m669.1157205795288,293.429848805027 c1.23543,0 2.23236,-0.99693 2.23236,-2.2275899999999997 l0,-6.57306 c0,-1.23543 -0.99693,-2.23236 -2.23236,-2.23236 c-1.2306599999999999,0 -2.2275899999999997,0.99693 -2.2275899999999997,2.23236 l0,6.57306 c0.014310000000000007,1.2306599999999999 1.00647,2.2275899999999997 2.2275899999999997,2.2275899999999997 z" vector-effect="non-scaling-stroke" stroke-width="0"/>
  </g><g id="svg_34" class="">
   <path id="svg_35" fill-rule=" nonzero" fill=" rgb(114,147,67)" stroke-miterlimit="4" stroke-linejoin=" miter" stroke-dashoffset="0" stroke-dasharray=" none" stroke=" none" stroke-linecap=" butt" d="m675.7373505795289,280.27331880502703 l6.587369999999999,0 c1.2306599999999999,0 2.2275899999999997,-0.99693 2.2275899999999997,-2.23236 c0,-1.22112 -0.99693,-2.2275899999999997 -2.2275899999999997,-2.2275899999999997 l-6.587369999999999,0 c-1.2306599999999999,0 -2.2275899999999997,0.99693 -2.2275899999999997,2.2275899999999997 c0.009540000000000009,1.23543 0.99693,2.23236 2.2275899999999997,2.23236 z" vector-effect="non-scaling-stroke" stroke-width="0"/>
  </g><g id="svg_36" class="">
   <path id="svg_37" fill-rule=" nonzero" fill=" rgb(114,147,67)" stroke-miterlimit="4" stroke-linejoin=" miter" stroke-dashoffset="0" stroke-dasharray=" none" stroke=" none" stroke-linecap=" butt" d="m655.9687305795288,280.27331880502703 l6.5778300000000005,0 c1.2306599999999999,0 2.2275899999999997,-0.99693 2.2275899999999997,-2.23236 c0,-1.22112 -0.99693,-2.2275899999999997 -2.2275899999999997,-2.2275899999999997 l-6.5778300000000005,0 c-1.2306599999999999,0 -2.2275899999999997,0.99693 -2.2275899999999997,2.2275899999999997 c0,1.23543 0.99693,2.23236 2.2275899999999997,2.23236 z" vector-effect="non-scaling-stroke" stroke-width="0"/>
  </g><g id="svg_38" class="">
   <path id="svg_39" fill-rule=" nonzero" fill=" rgb(114,147,67)" stroke-miterlimit="4" stroke-linejoin=" miter" stroke-dashoffset="0" stroke-dasharray=" none" stroke=" none" stroke-linecap=" butt" d="m660.9670505795287,273.060028805027 c0.4436100000000002,0.4388400000000002 1.00647,0.6582600000000002 1.5836400000000006,0.6582600000000002 c0.5676300000000003,0 1.13526,-0.2194200000000001 1.5645600000000002,-0.6582600000000002 c0.8824500000000003,-0.8681400000000002 0.8824500000000003,-2.2800599999999998 0.009540000000000009,-3.1482000000000006 l-2.45655,-2.45178 c-0.8729100000000003,-0.8776800000000002 -2.28483,-0.8776800000000002 -3.1482000000000006,0 c-0.8729100000000003,0.8681400000000002 -0.8729100000000003,2.27529 -0.0047700000000000025,3.1434300000000004 l2.45178,2.45655 z" vector-effect="non-scaling-stroke" stroke-width="0"/>
  </g><g id="svg_40" class="">
   <path id="svg_41" fill-rule=" nonzero" fill=" rgb(114,147,67)" stroke-miterlimit="4" stroke-linejoin=" miter" stroke-dashoffset="0" stroke-dasharray=" none" stroke=" none" stroke-linecap=" butt" d="m676.6204405795288,288.66094880502703 c0.4340700000000002,0.4388400000000002 1.0017,0.6534900000000002 1.5741000000000005,0.6534900000000002 c0.5676300000000003,0 1.1400299999999999,-0.21465000000000004 1.5741000000000005,-0.6534900000000002 c0.8729100000000003,-0.8729100000000003 0.8729100000000003,-2.28483 0,-3.1482000000000006 l-2.46609,-2.45655 c-0.8729100000000003,-0.8729100000000003 -2.2800599999999998,-0.8729100000000003 -3.1434300000000004,0 c-0.8729100000000003,0.8729100000000003 -0.8729100000000003,2.2800599999999998 0,3.1482000000000006 l2.4613199999999997,2.45655 z" vector-effect="non-scaling-stroke" stroke-width="0"/>
  </g><g id="svg_42" class="">
   <path id="svg_43" fill-rule=" nonzero" fill=" rgb(114,147,67)" stroke-miterlimit="4" stroke-linejoin=" miter" stroke-dashoffset="0" stroke-dasharray=" none" stroke=" none" stroke-linecap=" butt" d="m675.7284505795287,273.723058805027 c0.5676300000000003,0 1.1448,-0.2194200000000001 1.5741000000000005,-0.6534900000000002 l2.46609,-2.46609 c0.8729100000000003,-0.8729100000000003 0.8729100000000003,-2.2800599999999998 0,-3.1434300000000004 c-0.8729100000000003,-0.8776800000000002 -2.2800599999999998,-0.8776800000000002 -3.1482000000000006,0 l-2.4613199999999997,2.4613199999999997 c-0.8729100000000003,0.8681400000000002 -0.8729100000000003,2.2800599999999998 0,3.1482000000000006 c0.4388400000000002,0.4340700000000002 1.0017,0.6534900000000002 1.5693300000000001,0.6534900000000002 z" vector-effect="non-scaling-stroke" stroke-width="0"/>
  </g></g></g>
</svg>