<svg width="1080" height="700" xmlns="http://www.w3.org/2000/svg" xml:space="preserve" version="1.1">
 <desc>Created with Fabric.js 5.2.4</desc>

 <g>
  <title>Layer 1</title>
  <g id="de838e8f-924d-4009-9142-67ea50cb4d30" transform="matrix(1 0 0 1 540 540)"/>
  <g id="svg_2" transform="matrix(4.77 0 0 4.77 539.96 414.7)">
   <path id="svg_3" fill-rule=" nonzero" fill=" rgb(114,147,67)" stroke-miterlimit="4" stroke-linejoin=" miter" stroke-dashoffset="0" stroke-dasharray=" none" stroke=" none" stroke-linecap=" butt" d="m44.31364,-21.646c-0.533,-0.829 -1.358,-1.4 -2.322,-1.607c-0.967,-0.209 -1.952,-0.029 -2.78,0.506l-4.638,2.99l0,-2.615c0,-0.516 -0.418,-0.934 -0.935,-0.934l-67.319,0c-0.517,0 -0.935,0.418 -0.935,0.934l-0.008,2.31l-4.167,-2.686c-0.829,-0.535 -1.816,-0.715 -2.781,-0.508c-0.964,0.209 -1.789,0.78 -2.324,1.608c-0.533,0.829 -0.714,1.815 -0.506,2.78c0.208,0.964 0.779,1.789 1.608,2.322l8.138,5.248l0,16.563c0,0.03 0.001,0.06 0.004,0.088l0.086,0.909c0.021,5.613 3.877,10.327 9.074,11.688c-0.252,0.51 -0.4,1.068 -0.4,1.65c0,2.061 1.674,3.734 3.733,3.734l44.193,0c2.06,0 3.734,-1.676 3.734,-3.734c0,-0.572 -0.146,-1.125 -0.392,-1.63c5.252,-1.335 9.153,-6.091 9.153,-11.753l0,-17.164l8.681,-5.598c0.829,-0.534 1.399,-1.358 1.608,-2.322c0.21,-0.963 0.031,-1.951 -0.505,-2.779zm-86.889,2.387c-0.104,-0.477 -0.015,-0.965 0.25,-1.375c0.264,-0.41 0.672,-0.691 1.148,-0.795c0.479,-0.104 0.966,-0.014 1.375,0.252l5.17,3.332l-0.018,4.334l-7.133,-4.6c-0.407,-0.266 -0.69,-0.673 -0.792,-1.148zm66.022,37.641c0.293,0.339 0.455,0.772 0.455,1.222c0,1.03 -0.838,1.868 -1.867,1.868l-44.193,0c-1.028,0 -1.866,-0.837 -1.866,-1.868c0,-0.474 0.178,-0.926 0.5,-1.273c0.008,-0.008 0.01,-0.018 0.016,-0.025c0.357,0.031 0.719,0.055 1.082,0.055l44.823,0c0.338,0 0.668,-0.023 1,-0.051c0.015,0.022 0.031,0.049 0.05,0.072zm9.259,-30.134c-0.026,0.086 -0.04,0.177 -0.04,0.271l0,17.7c0,5.664 -4.607,10.271 -10.271,10.271l-44.821,0c-3.19,0 -6.047,-1.463 -7.932,-3.754l13.346,0c0.516,0 0.934,-0.416 0.934,-0.934c0,-0.516 -0.418,-0.934 -0.934,-0.934l-14.316,0c-0.079,0 -0.155,0.013 -0.229,0.031c-0.59,-1.148 -0.975,-2.419 -1.095,-3.767l10.038,0c0.516,0 0.934,-0.418 0.934,-0.935c0,-0.516 -0.418,-0.934 -0.934,-0.934l-10.169,0l-0.005,-0.042l0,-3.69l4.57,0c0.516,0 0.935,-0.418 0.935,-0.935c0,-0.517 -0.419,-0.935 -0.935,-0.935l-4.57,0l0,-11.434l0.04,-6.57l0,-3.095l65.454,0l0,9.686zm10.29,-7.509c-0.104,0.478 -0.385,0.885 -0.795,1.149l-7.629,4.919l0,-4.344l5.65,-3.643c0.41,-0.265 0.897,-0.354 1.374,-0.25c0.476,0.104 0.884,0.385 1.148,0.795c0.264,0.41 0.355,0.899 0.252,1.374z" vector-effect="non-scaling-stroke"/>
  </g>
  <g id="svg_4" transform="matrix(4.77 0 0 4.77 398.19 157.23)">
   <path id="svg_5" fill-rule=" nonzero" fill=" rgb(114,147,67)" stroke-miterlimit="4" stroke-linejoin=" miter" stroke-dashoffset="0" stroke-dasharray=" none" stroke=" none" stroke-linecap=" butt" d="m0.006,2c0.345,0 0.621,-0.279 0.621,-0.623l0,-2.76c0,-0.344 -0.276,-0.623 -0.621,-0.623c-0.344,0 -0.623,0.278 -0.623,0.623l0,2.76c0,0.343 0.279,0.623 0.623,0.623z" vector-effect="non-scaling-stroke"/>
  </g>
  <g id="svg_6" transform="matrix(4.77 0 0 4.77 398.19 196.71)">
   <path id="svg_7" fill-rule=" nonzero" fill=" rgb(114,147,67)" stroke-miterlimit="4" stroke-linejoin=" miter" stroke-dashoffset="0" stroke-dasharray=" none" stroke=" none" stroke-linecap=" butt" d="m0.42529,1.79536c0.345,0 0.621,-0.279 0.621,-0.622l0,-2.759c0,-0.344 -0.276,-0.623 -0.621,-0.623c-0.344,0 -0.623,0.279 -0.623,0.623l0,2.759c0,0.343 0.279,0.622 0.623,0.622z" vector-effect="non-scaling-stroke"/>
  </g>
  <g id="svg_8" transform="matrix(4.77 0 0 4.77 417.94 176.96)">
   <path id="svg_9" fill-rule=" nonzero" fill=" rgb(114,147,67)" stroke-miterlimit="4" stroke-linejoin=" miter" stroke-dashoffset="0" stroke-dasharray=" none" stroke=" none" stroke-linecap=" butt" d="m-1.998,0.004c0,0.345 0.278,0.623 0.623,0.623l2.759,0c0.344,0 0.622,-0.278 0.622,-0.623c0,-0.344 -0.278,-0.623 -0.622,-0.623l-2.759,0c-0.345,0 -0.623,0.28 -0.623,0.623z" vector-effect="non-scaling-stroke"/>
  </g>
  <g id="svg_10" transform="matrix(4.77 0 0 4.77 378.46 176.96)">
   <path id="svg_11" fill-rule=" nonzero" fill=" rgb(114,147,67)" stroke-miterlimit="4" stroke-linejoin=" miter" stroke-dashoffset="0" stroke-dasharray=" none" stroke=" none" stroke-linecap=" butt" d="m-1.382,0.627l2.76,0c0.344,0 0.621,-0.278 0.621,-0.623c0,-0.344 -0.277,-0.623 -0.621,-0.623l-2.76,0c-0.344,0 -0.622,0.279 -0.622,0.623c0,0.345 0.279,0.623 0.622,0.623z" vector-effect="non-scaling-stroke"/>
  </g>
  <g id="svg_12" transform="matrix(4.77 0 0 4.77 382.59 161.36)">
   <path id="svg_13" fill-rule=" nonzero" fill=" rgb(114,147,67)" stroke-miterlimit="4" stroke-linejoin=" miter" stroke-dashoffset="0" stroke-dasharray=" none" stroke=" none" stroke-linecap=" butt" d="m0.077,0.956c0.121,0.122 0.281,0.184 0.439,0.184c0.159,0 0.318,-0.062 0.44,-0.183c0.243,-0.243 0.243,-0.638 0.001,-0.88l-1.031,-1.031c-0.242,-0.244 -0.638,-0.243 -0.88,0c-0.243,0.243 -0.243,0.637 -0.001,0.88l1.032,1.03z" vector-effect="non-scaling-stroke"/>
  </g>
  <g id="svg_14" transform="matrix(4.77 0 0 4.77 413.81 192.59)">
   <path id="svg_15" fill-rule=" nonzero" fill=" rgb(114,147,67)" stroke-miterlimit="4" stroke-linejoin=" miter" stroke-dashoffset="0" stroke-dasharray=" none" stroke=" none" stroke-linecap=" butt" d="m-0.956,-0.956c-0.242,0.243 -0.242,0.638 0,0.88l1.031,1.031c0.121,0.122 0.279,0.184 0.439,0.184c0.16,0 0.318,-0.062 0.44,-0.184c0.243,-0.243 0.243,-0.637 0,-0.88l-1.03,-1.031c-0.243,-0.243 -0.637,-0.243 -0.88,0z" vector-effect="non-scaling-stroke"/>
  </g>
  <g id="svg_16" transform="matrix(4.77 0 0 4.77 413.81 161.37)">
   <path id="svg_17" fill-rule=" nonzero" fill=" rgb(114,147,67)" stroke-miterlimit="4" stroke-linejoin=" miter" stroke-dashoffset="0" stroke-dasharray=" none" stroke=" none" stroke-linecap=" butt" d="m-0.515,1.14c0.159,0 0.317,-0.062 0.44,-0.183l1.03,-1.03c0.243,-0.242 0.243,-0.637 0,-0.88c-0.243,-0.244 -0.638,-0.243 -0.881,0l-1.031,1.029c-0.243,0.243 -0.243,0.637 0,0.88c0.122,0.122 0.282,0.184 0.442,0.184z" vector-effect="non-scaling-stroke"/>
  </g>
  <g id="svg_18" transform="matrix(4.77 0 0 4.77 382.58 192.6)">
   <path id="svg_19" fill-rule=" nonzero" fill=" rgb(114,147,67)" stroke-miterlimit="4" stroke-linejoin=" miter" stroke-dashoffset="0" stroke-dasharray=" none" stroke=" none" stroke-linecap=" butt" d="m0.077,-0.956l-1.029,1.03c-0.243,0.243 -0.243,0.637 0,0.88c0.121,0.122 0.281,0.183 0.439,0.183c0.158,0 0.318,-0.061 0.439,-0.183l1.03,-1.028c0.243,-0.244 0.243,-0.638 0,-0.881c-0.243,-0.243 -0.637,-0.244 -0.879,-0.001z" vector-effect="non-scaling-stroke"/>
  </g>
  <g id="svg_20" transform="matrix(4.77 0 0 4.77 452.82 259.31)">
   <path id="svg_21" fill-rule=" nonzero" fill=" rgb(114,147,67)" stroke-miterlimit="4" stroke-linejoin=" miter" stroke-dashoffset="0" stroke-dasharray=" none" stroke=" none" stroke-linecap=" butt" d="m-0.003,3.384c1.863,0 3.381,-1.517 3.381,-3.381c0,-1.865 -1.518,-3.382 -3.381,-3.382c-1.865,0 -3.382,1.518 -3.382,3.382c0,1.864 1.517,3.381 3.382,3.381zm0,-5.519c1.178,0 2.135,0.959 2.135,2.137c0,1.178 -0.957,2.136 -2.135,2.136c-1.18,0 -2.137,-0.958 -2.137,-2.136c0,-1.178 0.957,-2.137 2.137,-2.137z" vector-effect="non-scaling-stroke"/>
  </g>
  <g id="svg_22" transform="matrix(4.77 0 0 4.77 559.76 216.1)">
   <path id="svg_23" fill-rule=" nonzero" fill=" rgb(114,147,67)" stroke-miterlimit="4" stroke-linejoin=" miter" stroke-dashoffset="0" stroke-dasharray=" none" stroke=" none" stroke-linecap=" butt" d="m0.004,5.485c3.024,0 5.485,-2.461 5.485,-5.487c0,-3.024 -2.461,-5.486 -5.485,-5.486c-3.026,0 -5.489,2.461 -5.489,5.486c-0.002,3.026 2.461,5.487 5.489,5.487zm0,-9.73c2.338,0 4.24,1.904 4.24,4.242c0,2.34 -1.902,4.242 -4.24,4.242c-2.341,0 -4.243,-1.902 -4.243,-4.242c-0.002,-2.337 1.902,-4.242 4.243,-4.242z" vector-effect="non-scaling-stroke"/>
  </g>
  <g id="svg_24" transform="matrix(4.77 0 0 4.77 590.71 185.17)">
   <path id="svg_25" fill-rule=" nonzero" fill=" rgb(114,147,67)" stroke-miterlimit="4" stroke-linejoin=" miter" stroke-dashoffset="0" stroke-dasharray=" none" stroke=" none" stroke-linecap=" butt" d="m-0.001,2.091c1.151,0 2.087,-0.938 2.087,-2.089c0,-1.151 -0.936,-2.087 -2.087,-2.087c-1.153,0 -2.089,0.937 -2.089,2.087c0,1.152 0.936,2.089 2.089,2.089zm0,-3.243c0.638,0 1.153,0.519 1.153,1.154c0,0.637 -0.518,1.155 -1.153,1.155c-0.638,0 -1.155,-0.52 -1.155,-1.155c0,-0.638 0.517,-1.154 1.155,-1.154z" vector-effect="non-scaling-stroke"/>
  </g>
  <g id="svg_26" transform="matrix(4.77 0 0 4.77 552.11 209.58)">
   <path id="svg_27" fill-rule=" nonzero" fill=" rgb(114,147,67)" stroke-miterlimit="4" stroke-linejoin=" miter" stroke-dashoffset="0" stroke-dasharray=" none" stroke=" none" stroke-linecap=" butt" d="m-0.891,1.537c0.021,0 0.045,0 0.067,-0.004c0.255,-0.037 0.433,-0.273 0.396,-0.528c-0.051,-0.361 0.084,-0.761 0.373,-1.093c0.272,-0.316 0.641,-0.514 0.955,-0.514c0.258,0 0.467,-0.209 0.467,-0.467c0,-0.258 -0.209,-0.467 -0.467,-0.467c-0.586,0 -1.207,0.312 -1.66,0.835c-0.467,0.538 -0.684,1.208 -0.592,1.838c0.036,0.234 0.233,0.4 0.461,0.4z" vector-effect="non-scaling-stroke"/>
  </g>
  <g id="svg_28" transform="matrix(4.77 0 0 4.77 549.87 223.27)">
   <circle id="svg_29" fill-rule=" nonzero" fill=" rgb(114,147,67)" stroke-miterlimit="4" stroke-linejoin=" miter" stroke-dashoffset="0" stroke-linecap=" butt" stroke-dasharray=" none" stroke=" none" r="0.61" cy="0" cx="0" vector-effect="non-scaling-stroke"/>
  </g>
  <g id="svg_30" transform="matrix(4.77 0 0 4.77 650.86 264.15)">
   <path id="svg_31" fill-rule=" nonzero" fill=" rgb(114,147,67)" stroke-miterlimit="4" stroke-linejoin=" miter" stroke-dashoffset="0" stroke-dasharray=" none" stroke=" none" stroke-linecap=" butt" d="m-0.005,1.154c0.259,0 0.468,-0.209 0.468,-0.467l0,-1.381c0,-0.258 -0.209,-0.467 -0.468,-0.467c-0.258,0 -0.467,0.209 -0.467,0.467l0,1.381c0.003,0.258 0.211,0.467 0.467,0.467z" vector-effect="non-scaling-stroke"/>
  </g>
  <g id="svg_32" transform="matrix(4.77 0 0 4.77 650.86 286.85)">
   <path id="svg_33" fill-rule=" nonzero" fill=" rgb(114,147,67)" stroke-miterlimit="4" stroke-linejoin=" miter" stroke-dashoffset="0" stroke-dasharray=" none" stroke=" none" stroke-linecap=" butt" d="m-0.005,1.154c0.259,0 0.468,-0.209 0.468,-0.467l0,-1.378c0,-0.259 -0.209,-0.468 -0.468,-0.468c-0.258,0 -0.467,0.209 -0.467,0.468l0,1.378c0.003,0.258 0.211,0.467 0.467,0.467z" vector-effect="non-scaling-stroke"/>
  </g>
  <g id="svg_34" transform="matrix(4.77 0 0 4.77 660.73 276.98)">
   <path id="svg_35" fill-rule=" nonzero" fill=" rgb(114,147,67)" stroke-miterlimit="4" stroke-linejoin=" miter" stroke-dashoffset="0" stroke-dasharray=" none" stroke=" none" stroke-linecap=" butt" d="m-0.686,0.465l1.381,0c0.258,0 0.467,-0.209 0.467,-0.468c0,-0.256 -0.209,-0.467 -0.467,-0.467l-1.381,0c-0.258,0 -0.467,0.209 -0.467,0.467c0.002,0.259 0.209,0.468 0.467,0.468z" vector-effect="non-scaling-stroke"/>
  </g>
  <g id="svg_36" transform="matrix(4.77 0 0 4.77 640.99 276.98)">
   <path id="svg_37" fill-rule=" nonzero" fill=" rgb(114,147,67)" stroke-miterlimit="4" stroke-linejoin=" miter" stroke-dashoffset="0" stroke-dasharray=" none" stroke=" none" stroke-linecap=" butt" d="m-0.692,0.465l1.379,0c0.258,0 0.467,-0.209 0.467,-0.468c0,-0.256 -0.209,-0.467 -0.467,-0.467l-1.379,0c-0.258,0 -0.467,0.209 -0.467,0.467c0,0.259 0.209,0.468 0.467,0.468z" vector-effect="non-scaling-stroke"/>
  </g>
  <g id="svg_38" transform="matrix(4.77 0 0 4.77 643.05 269.18)">
   <path id="svg_39" fill-rule=" nonzero" fill=" rgb(114,147,67)" stroke-miterlimit="4" stroke-linejoin=" miter" stroke-dashoffset="0" stroke-dasharray=" none" stroke=" none" stroke-linecap=" butt" d="m-0.076,0.588c0.093,0.092 0.211,0.138 0.332,0.138c0.119,0 0.238,-0.046 0.328,-0.138c0.185,-0.182 0.185,-0.478 0.002,-0.66l-0.515,-0.514c-0.183,-0.184 -0.479,-0.184 -0.66,0c-0.183,0.182 -0.183,0.477 -0.001,0.659l0.514,0.515z" vector-effect="non-scaling-stroke"/>
  </g>
  <g id="svg_40" transform="matrix(4.77 0 0 4.77 658.67 284.8)">
   <path id="svg_41" fill-rule=" nonzero" fill=" rgb(114,147,67)" stroke-miterlimit="4" stroke-linejoin=" miter" stroke-dashoffset="0" stroke-dasharray=" none" stroke=" none" stroke-linecap=" butt" d="m-0.069,0.584c0.091,0.092 0.21,0.137 0.33,0.137c0.119,0 0.239,-0.045 0.33,-0.137c0.183,-0.183 0.183,-0.479 0,-0.66l-0.517,-0.515c-0.183,-0.183 -0.478,-0.183 -0.659,0c-0.183,0.183 -0.183,0.478 0,0.66l0.516,0.515z" vector-effect="non-scaling-stroke"/>
  </g>
  <g id="svg_42" transform="matrix(4.77 0 0 4.77 658.67 269.18)">
   <path id="svg_43" fill-rule=" nonzero" fill=" rgb(114,147,67)" stroke-miterlimit="4" stroke-linejoin=" miter" stroke-dashoffset="0" stroke-dasharray=" none" stroke=" none" stroke-linecap=" butt" d="m-0.256,0.727c0.119,0 0.24,-0.046 0.33,-0.137l0.517,-0.517c0.183,-0.183 0.183,-0.478 0,-0.659c-0.183,-0.184 -0.478,-0.184 -0.66,0l-0.516,0.516c-0.183,0.182 -0.183,0.478 0,0.66c0.092,0.091 0.21,0.137 0.329,0.137z" vector-effect="non-scaling-stroke"/>
  </g>
 </g>
</svg>