<svg xmlns="http://www.w3.org/2000/svg" version="1.1" xmlns:xlink="http://www.w3.org/1999/xlink" xmlns:svgjs="http://svgjs.dev/svgjs" width="1000" height="784" viewBox="0 0 1000 784"><g transform="matrix(1,0,0,1,-0.1453112142808095,0.3174089068825765)"><svg viewBox="0 0 315 247" data-background-color="#ffffff" preserveAspectRatio="xMidYMid meet" height="784" width="1000" xmlns="http://www.w3.org/2000/svg" xmlns:xlink="http://www.w3.org/1999/xlink"><g id="tight-bounds" transform="matrix(1,0,0,1,0.04577303249845954,-0.09999999999999432)"><svg viewBox="0 0 314.9084539350031 247.2" height="247.2" width="314.9084539350031"><g><svg viewBox="0 0 397.4975999999999 312.0316571122637" height="247.2" width="314.9084539350031"><g><rect width="397.4975999999999" height="6.166103488390786" x="0" y="166.60985254843368" fill="#729343" opacity="1" stroke-width="0" stroke="transparent" fill-opacity="1" class="rect-o-0" data-fill-palette-color="primary" rx="1%" id="o-0" data-palette-color="#729343"></rect></g><g><rect width="397.4975999999999" height="6.166103488390786" x="0" y="180.8467721211056" fill="#729343" opacity="1" stroke-width="0" stroke="transparent" fill-opacity="1" class="rect-o-1" data-fill-palette-color="primary" rx="1%" id="o-1" data-palette-color="#729343"></rect></g><g transform="matrix(1,0,0,1,0.9887999999999693,203.15450777805864)"><svg viewBox="0 0 395.52 108.87714933420507" height="108.87714933420507" width="395.52"><g><svg viewBox="0 0 395.52 108.87714933420507" height="108.87714933420507" width="395.52"><g><svg viewBox="0 0 395.52 68.37472749691737" height="68.37472749691737" width="395.52"><g transform="matrix(1,0,0,1,0,0)"><svg width="395.52" viewBox="3.0999999046325684 -35 202.72999572753906 35.04999923706055" height="68.37472749691737" data-palette-color="#729343"><path d="M18.05 0L6.7 0Q5.2 0 4.15-1.05 3.1-2.1 3.1-3.6L3.1-3.6 3.1-31.45Q3.1-32.9 4.15-33.95 5.2-35 6.7-35L6.7-35 18.05-35Q19.55-35 20.6-33.95 21.65-32.9 21.65-31.45L21.65-31.45 21.65-23.65 17-24.7 17-28.6Q17-29.35 16.48-29.88 15.95-30.4 15.2-30.4L15.2-30.4 9.55-30.4Q8.8-30.4 8.28-29.88 7.75-29.35 7.75-28.6L7.75-28.6 7.75-6.45Q7.75-5.7 8.28-5.18 8.8-4.65 9.55-4.65L9.55-4.65 15.2-4.65Q15.95-4.65 16.48-5.18 17-5.7 17-6.45L17-6.45 17-11.3 12.4-11.3 13.45-15.95 21.65-15.95 21.65-3.6Q21.65-2.1 20.6-1.05 19.55 0 18.05 0L18.05 0ZM30.5 0.05L25.85 0.05 32.9-34.95 37.45-34.95 44.4 0.05 39.75 0.05 38.4-6.5 31.75-6.5 30.5 0.05ZM35.2-23.55L32.65-11.1 37.6-11.1 35.2-23.55ZM51.65 0L47 0 47-35 62-35Q63.45-35 64.5-33.95 65.55-32.9 65.55-31.4L65.55-31.4 65.55-20.65Q65.55-19.15 64.5-18.1 63.45-17.05 62-17.05L62-17.05 60.95-17.05 65.55 0 60.95 0 56.3-17.05 51.65-17.05 51.65 0ZM51.65-30.35L51.65-21.7 59.15-21.7Q59.85-21.7 60.4-22.23 60.95-22.75 60.95-23.5L60.95-23.5 60.95-28.55Q60.95-29.3 60.4-29.83 59.85-30.35 59.15-30.35L59.15-30.35 51.65-30.35ZM74.29 0L69.64 0 69.64-35 74.29-35 83.59-11.65 83.59-35 88.24-35 88.24 0 83.59 0 74.29-23.35 74.29 0ZM106.39 0L95.04 0Q93.54 0 92.49-1.05 91.44-2.1 91.44-3.6L91.44-3.6 91.44-35 96.09-35 96.09-6.4Q96.09-5.7 96.62-5.18 97.14-4.65 97.89-4.65L97.89-4.65 103.54-4.65Q104.29-4.65 104.81-5.18 105.34-5.7 105.34-6.4L105.34-6.4 105.34-35 109.99-35 109.99-3.6Q109.99-2.1 108.94-1.05 107.89 0 106.39 0L106.39 0ZM128.54 0L117.19 0Q115.69 0 114.64-1.05 113.59-2.1 113.59-3.6L113.59-3.6 113.59-11.35 118.24-10.3 118.24-6.45Q118.24-5.7 118.76-5.18 119.29-4.65 119.99-4.65L119.99-4.65 125.69-4.65Q126.44-4.65 126.96-5.18 127.49-5.7 127.49-6.45L127.49-6.45 127.49-15.25Q127.49-16 126.96-16.53 126.44-17.05 125.69-17.05L125.69-17.05 117.19-17.05Q115.69-17.05 114.64-18.1 113.59-19.15 113.59-20.65L113.59-20.65 113.59-31.4Q113.59-32.9 114.64-33.95 115.69-35 117.19-35L117.19-35 128.54-35Q130.04-35 131.09-33.95 132.14-32.9 132.14-31.4L132.14-31.4 132.14-26 127.49-27.1 127.49-28.55Q127.49-29.3 126.96-29.83 126.44-30.35 125.69-30.35L125.69-30.35 119.99-30.35Q119.29-30.35 118.76-29.83 118.24-29.3 118.24-28.55L118.24-28.55 118.24-23.5Q118.24-22.75 118.76-22.23 119.29-21.7 119.99-21.7L119.99-21.7 128.54-21.7Q130.04-21.7 131.09-20.65 132.14-19.6 132.14-18.1L132.14-18.1 132.14-3.6Q132.14-2.1 131.09-1.05 130.04 0 128.54 0L128.54 0ZM156.79 0L138.24 0 144.99-17.05 142.34-17.05 144.19-21.7 146.84-21.7 150.29-30.35 138.24-30.35 138.24-35 156.79-35 151.49-21.7 154.19-21.7 152.39-17.05 149.64-17.05 144.69-4.65 156.79-4.65 156.79 0ZM181.58 0L162.98 0 162.98-35 181.58-35 181.58-30.4 167.63-30.4 167.63-21.7 176.93-21.7 175.88-17.05 167.63-17.05 167.63-4.65 181.58-4.65 181.58 0ZM191.93 0L187.28 0 187.28-35 191.93-35 191.93-11.65 201.18-35 205.83-35 198.88-17.5 205.83 0 201.18 0 196.58-11.65 191.93 0Z" opacity="1" transform="matrix(1,0,0,1,0,0)" fill="#729343" class="undefined-text-0" data-fill-palette-color="primary" id="text-0"></path></svg></g></svg></g><g transform="matrix(1,0,0,1,75.54432,84.51635966547964)"><svg viewBox="0 0 244.43135999999998 24.36078966872543" height="24.36078966872543" width="244.43135999999998"><g transform="matrix(1,0,0,1,0,0)"><svg width="244.43135999999998" viewBox="0.9000000357627869 -40.25 534.25 53.25" height="24.36078966872543" data-palette-color="#729343"><path d="M25.75-7.75L24.9 0 0.9 0 0.9-0.2 18.2-24.4 12.65-24.4Q10.5-24.4 9.13-24.23 7.75-24.05 6.88-23.53 6-23 5.55-22.08 5.1-21.15 4.85-19.6L4.85-19.6 3.25-19.6 4.05-26.5 25.55-26.5 25.55-26.3 8.5-2.3 14.35-2.3Q16.9-2.3 18.57-2.5 20.25-2.7 21.33-3.3 22.4-3.9 23.03-4.95 23.65-6 24.1-7.75L24.1-7.75 25.75-7.75ZM53-14.55L53-7.85Q53-5.8 53.1-4.63 53.2-3.45 53.62-2.83 54.05-2.2 54.87-2 55.7-1.8 57.15-1.7L57.15-1.7 57.15 0 44.05 0 44.05-1.7Q45.45-1.8 46.27-2 47.1-2.2 47.55-2.8 48-3.4 48.12-4.5 48.25-5.6 48.25-7.5L48.25-7.5 48.25-14.15Q48.25-20.1 47.95-21.4L47.95-21.4Q47.8-22.05 47.57-22.48 47.35-22.9 46.9-23.13 46.45-23.35 45.75-23.43 45.05-23.5 43.95-23.5L43.95-23.5 43.95-25.1 51.95-27 52.55-22.05 52.75-22.05Q54.65-24.4 57.2-25.7 59.75-27 62.75-27L62.75-27Q65.05-27 66.95-26.25 68.85-25.5 69.85-24.2L69.85-24.2Q70.7-23.05 71.05-21.23 71.4-19.4 71.4-16.2L71.4-16.2 71.4-7.85Q71.4-5.8 71.52-4.63 71.65-3.45 72.05-2.83 72.45-2.2 73.27-2 74.1-1.8 75.45-1.7L75.45-1.7 75.45 0 62.5 0 62.5-1.7Q63.9-1.75 64.72-1.98 65.55-2.2 65.97-2.8 66.4-3.4 66.52-4.53 66.65-5.65 66.65-7.5L66.65-7.5 66.65-14.1Q66.65-16.95 66.35-18.9 66.05-20.85 65.37-22.05 64.7-23.25 63.6-23.78 62.5-24.3 60.95-24.3L60.95-24.3Q58.7-24.3 56.82-23.13 54.95-21.95 53.9-19.9L53.9-19.9Q53.65-19.4 53.47-18.95 53.3-18.5 53.2-17.9 53.1-17.3 53.05-16.53 53-15.75 53-14.55L53-14.55ZM94.09-10.85L94.09-14.8Q91.24-13.7 89.27-12.65 87.29-11.6 86.09-10.55 84.89-9.5 84.37-8.45 83.84-7.4 83.84-6.3L83.84-6.3Q83.84-4.65 84.94-3.6 86.04-2.55 87.84-2.55L87.84-2.55Q89.14-2.55 90.27-3.2 91.39-3.85 92.24-4.98 93.09-6.1 93.59-7.63 94.09-9.15 94.09-10.85L94.09-10.85ZM86.89-13.8L94.09-16.95 94.09-19Q94.09-25.1 88.89-25.1L88.89-25.1Q88.04-25.1 87.44-24.95 86.84-24.8 86.44-24.45 86.04-24.1 85.72-23.45 85.39-22.8 85.09-21.85L85.09-21.85Q84.54-20.4 84.02-19.93 83.49-19.45 82.49-19.45L82.49-19.45Q79.99-19.45 79.99-21.95L79.99-21.95Q79.99-24.35 82.54-25.68 85.09-27 89.79-27L89.79-27Q94.79-27 96.89-25.23 98.99-23.45 98.99-19.2L98.99-19.2 98.99-8Q98.99-2.3 101.24-2.3L101.24-2.3Q101.94-2.3 102.59-2.48 103.24-2.65 103.69-3.4L103.69-3.4 104.39-2.2Q103.79-1.05 102.19-0.28 100.59 0.5 98.84 0.5L98.84 0.5Q96.64 0.5 95.57-0.9 94.49-2.3 94.49-4.85L94.49-4.85 94.24-4.85Q92.94-2.4 90.64-0.98 88.34 0.45 85.54 0.45L85.54 0.45Q82.39 0.45 80.59-1.15 78.79-2.75 78.79-5.45L78.79-5.45Q78.79-6.65 79.22-7.75 79.64-8.85 80.59-9.85 81.54-10.85 83.09-11.83 84.64-12.8 86.89-13.8L86.89-13.8ZM115.39-14.35L115.39-8Q115.39-5.9 115.49-4.7 115.59-3.5 116.02-2.88 116.44-2.25 117.24-2.05 118.04-1.85 119.49-1.75L119.49-1.75 119.49 0 106.19 0 106.19-1.75Q107.64-1.85 108.49-2.05 109.34-2.25 109.79-2.85 110.24-3.45 110.37-4.58 110.49-5.7 110.49-7.6L110.49-7.6 110.49-14Q110.49-16.85 110.42-18.75 110.34-20.65 110.14-21.35L110.14-21.35Q109.99-22 109.79-22.38 109.59-22.75 109.14-22.98 108.69-23.2 107.97-23.28 107.24-23.35 106.09-23.35L106.09-23.35 106.09-25.1 114.24-27 114.89-22 115.14-22Q117.39-24.55 119.87-25.78 122.34-27 125.34-27L125.34-27Q128.49-27 130.64-25.73 132.79-24.45 133.64-22.05L133.64-22.05 133.84-22.05Q135.69-24.4 138.34-25.7 140.99-27 143.99-27L143.99-27Q146.34-27 148.27-26.23 150.19-25.45 151.19-24.1L151.19-24.1Q152.09-22.95 152.47-21.08 152.84-19.2 152.84-15.95L152.84-15.95 152.84-8Q152.84-5.95 152.97-4.75 153.09-3.55 153.49-2.9 153.89-2.25 154.72-2.05 155.54-1.85 156.99-1.75L156.99-1.75 156.99 0 143.69 0 143.69-1.75Q145.09-1.8 145.94-2.02 146.79-2.25 147.24-2.88 147.69-3.5 147.82-4.6 147.94-5.7 147.94-7.6L147.94-7.6 147.94-13.9Q147.94-16.75 147.64-18.73 147.34-20.7 146.64-21.93 145.94-23.15 144.82-23.7 143.69-24.25 142.09-24.25L142.09-24.25Q139.89-24.25 137.97-23.03 136.04-21.8 134.94-19.75L134.94-19.75Q134.69-19.25 134.52-18.78 134.34-18.3 134.24-17.73 134.14-17.15 134.12-16.35 134.09-15.55 134.09-14.35L134.09-14.35 134.09-8Q134.09-5.95 134.19-4.75 134.29-3.55 134.72-2.9 135.14-2.25 135.99-2.05 136.84-1.85 138.29-1.75L138.29-1.75 138.29 0 124.99 0 124.99-1.75Q126.39-1.85 127.24-2.05 128.09-2.25 128.52-2.85 128.94-3.45 129.07-4.58 129.19-5.7 129.19-7.6L129.19-7.6 129.19-13.9Q129.19-16.8 128.89-18.78 128.59-20.75 127.92-21.98 127.24-23.2 126.14-23.73 125.04-24.25 123.44-24.25L123.44-24.25Q121.19-24.25 119.22-23.03 117.24-21.8 116.24-19.75L116.24-19.75Q115.99-19.25 115.82-18.78 115.64-18.3 115.54-17.73 115.44-17.15 115.42-16.35 115.39-15.55 115.39-14.35L115.39-14.35ZM169.39-27L169.39-7.95Q169.39-6 169.56-4.83 169.74-3.65 170.24-2.98 170.74-2.3 171.64-2.05 172.54-1.8 174.04-1.75L174.04-1.75 174.04 0 159.69 0 159.69-1.75Q161.19-1.8 162.14-2.08 163.09-2.35 163.61-2.98 164.14-3.6 164.31-4.73 164.49-5.85 164.49-7.6L164.49-7.6 164.49-14Q164.49-16.9 164.41-18.78 164.34-20.65 164.14-21.35L164.14-21.35Q163.89-22.5 162.99-22.93 162.09-23.35 159.59-23.35L159.59-23.35 159.59-25.1 169.39-27ZM163.64-37.15L163.64-37.15Q163.64-38.45 164.54-39.35 165.44-40.25 166.74-40.25L166.74-40.25Q168.04-40.25 168.94-39.35 169.84-38.45 169.84-37.15L169.84-37.15Q169.84-35.85 168.94-34.95 168.04-34.05 166.74-34.05L166.74-34.05Q165.44-34.05 164.54-34.95 163.64-35.85 163.64-37.15ZM209.23-17.95L201.88 0.5 200.03 0.5 193.53-20.3Q193.08-21.7 192.68-22.55 192.28-23.4 191.73-23.9 191.18-24.4 190.43-24.58 189.68-24.75 188.58-24.75L188.58-24.75 188.58-26.5 201.83-26.5 201.83-24.75Q199.88-24.75 199.08-24.3 198.28-23.85 198.28-22.75L198.28-22.75Q198.28-22.25 198.43-21.58 198.58-20.9 198.83-19.9L198.83-19.9 202.23-7.95 202.43-7.95 209.78-26.5 211.33-26.5 217.98-7.95 218.18-7.95 221.18-16.05Q221.78-17.7 222.18-18.82 222.58-19.95 222.81-20.73 223.03-21.5 223.13-22 223.23-22.5 223.23-22.95L223.23-22.95Q223.23-24.05 222.58-24.4 221.93-24.75 219.88-24.75L219.88-24.75 219.88-26.5 229.88-26.5 229.88-24.75Q229.13-24.75 228.61-24.53 228.08-24.3 227.56-23.65 227.03-23 226.48-21.8 225.93-20.6 225.13-18.65L225.13-18.65 217.38 0.5 215.53 0.5 209.43-17.95 209.23-17.95ZM241.98-27L241.98-7.95Q241.98-6 242.16-4.83 242.33-3.65 242.83-2.98 243.33-2.3 244.23-2.05 245.13-1.8 246.63-1.75L246.63-1.75 246.63 0 232.28 0 232.28-1.75Q233.78-1.8 234.73-2.08 235.68-2.35 236.21-2.98 236.73-3.6 236.91-4.73 237.08-5.85 237.08-7.6L237.08-7.6 237.08-14Q237.08-16.9 237.01-18.78 236.93-20.65 236.73-21.35L236.73-21.35Q236.48-22.5 235.58-22.93 234.68-23.35 232.18-23.35L232.18-23.35 232.18-25.1 241.98-27ZM236.23-37.15L236.23-37.15Q236.23-38.45 237.13-39.35 238.03-40.25 239.33-40.25L239.33-40.25Q240.63-40.25 241.53-39.35 242.43-38.45 242.43-37.15L242.43-37.15Q242.43-35.85 241.53-34.95 240.63-34.05 239.33-34.05L239.33-34.05Q238.03-34.05 237.13-34.95 236.23-35.85 236.23-37.15ZM272.18-6.05L273.73-4.65Q269.48 0.5 263.18 0.5L263.18 0.5Q260.23 0.5 257.83-0.48 255.43-1.45 253.7-3.23 251.98-5 251.03-7.48 250.08-9.95 250.08-12.95L250.08-12.95Q250.08-16 251.08-18.6 252.08-21.2 253.9-23.05 255.73-24.9 258.25-25.95 260.78-27 263.78-27L263.78-27Q268.63-27 271.28-24.38 273.93-21.75 273.93-16.85L273.93-16.85Q273.93-16.15 273.65-16 273.38-15.85 272.38-15.85L272.38-15.85 255.93-15.85Q255.83-15.45 255.78-14.88 255.73-14.3 255.73-13.6L255.73-13.6Q255.73-11 256.35-8.88 256.98-6.75 258.15-5.25 259.33-3.75 260.95-2.93 262.58-2.1 264.58-2.1L264.58-2.1Q266.68-2.1 268.48-3.03 270.28-3.95 272.18-6.05L272.18-6.05ZM256.28-18.15L265.48-18.15Q266.48-18.15 267.08-18.2 267.68-18.25 267.98-18.4 268.28-18.55 268.38-18.82 268.48-19.1 268.48-19.55L268.48-19.55Q268.48-21.85 267-23.23 265.53-24.6 262.98-24.6L262.98-24.6Q257.58-24.6 256.28-18.15L256.28-18.15ZM281.58-1.75L280.58 0 279.48 0 279.48-8.6 280.73-8.6Q282.68-1.55 287.83-1.55L287.83-1.55Q289.83-1.55 291-2.53 292.18-3.5 292.18-5.5L292.18-5.5Q292.18-6.25 291.95-6.78 291.73-7.3 291.1-7.88 290.48-8.45 289.35-9.2 288.23-9.95 286.38-11.1L286.38-11.1Q284.68-12.15 283.43-13.05 282.18-13.95 281.33-14.88 280.48-15.8 280.05-16.85 279.63-17.9 279.63-19.3L279.63-19.3Q279.63-21 280.2-22.43 280.78-23.85 281.78-24.85 282.78-25.85 284.13-26.43 285.48-27 287.08-27L287.08-27Q288.43-27 289.88-26.58 291.33-26.15 292.43-25.45L292.43-25.45 293.43-26.5 294.38-26.5 294.38-19.3 293.08-19.3Q291.98-22.35 290.68-23.65 289.38-24.95 287.48-24.95L287.48-24.95Q285.78-24.95 284.75-24.05 283.73-23.15 283.73-21.55L283.73-21.55Q283.73-20.7 284-20.08 284.28-19.45 284.88-18.85 285.48-18.25 286.4-17.63 287.33-17 288.63-16.2L288.63-16.2Q290.78-14.85 292.3-13.8 293.83-12.75 294.78-11.73 295.73-10.7 296.18-9.6 296.63-8.5 296.63-7.1L296.63-7.1Q296.63-3.55 294.33-1.53 292.03 0.5 288.28 0.5L288.28 0.5Q284.38 0.5 281.58-1.75L281.58-1.75ZM324.72-7.75L323.87 0 299.87 0 299.87-0.2 317.17-24.4 311.62-24.4Q309.47-24.4 308.1-24.23 306.72-24.05 305.85-23.53 304.97-23 304.52-22.08 304.07-21.15 303.82-19.6L303.82-19.6 302.22-19.6 303.02-26.5 324.52-26.5 324.52-26.3 307.47-2.3 313.32-2.3Q315.87-2.3 317.55-2.5 319.22-2.7 320.3-3.3 321.37-3.9 322-4.95 322.62-6 323.07-7.75L323.07-7.75 324.72-7.75ZM364.97-5.6L366.47-4.15Q364.67-1.95 361.82-0.73 358.97 0.5 355.67 0.5L355.67 0.5Q353.02 0.5 350.79-0.48 348.57-1.45 346.97-3.23 345.37-5 344.49-7.5 343.62-10 343.62-13.05L343.62-13.05Q343.62-16.25 344.62-18.82 345.62-21.4 347.44-23.23 349.27-25.05 351.84-26.03 354.42-27 357.52-27L357.52-27Q359.47-27 361.07-26.68 362.67-26.35 363.84-25.78 365.02-25.2 365.67-24.38 366.32-23.55 366.32-22.6L366.32-22.6Q366.32-21.6 365.67-21.05 365.02-20.5 363.87-20.5L363.87-20.5Q362.97-20.5 362.37-20.88 361.77-21.25 360.82-22.55L360.82-22.55Q359.82-23.7 358.89-24.18 357.97-24.65 356.52-24.65L356.52-24.65Q352.97-24.65 351.14-21.9 349.32-19.15 349.32-13.8L349.32-13.8Q349.32-8.05 351.34-5.08 353.37-2.1 357.27-2.1L357.27-2.1Q359.37-2.1 361.22-2.93 363.07-3.75 364.97-5.6L364.97-5.6ZM384.22-27L384.22-27Q387.07-27 389.62-25.98 392.17-24.95 394.09-23.15 396.02-21.35 397.14-18.88 398.27-16.4 398.27-13.45L398.27-13.45Q398.27-10.4 397.14-7.85 396.02-5.3 394.09-3.45 392.17-1.6 389.62-0.55 387.07 0.5 384.22 0.5L384.22 0.5Q381.42 0.5 378.89-0.53 376.37-1.55 374.47-3.4 372.57-5.25 371.47-7.83 370.37-10.4 370.37-13.45L370.37-13.45Q370.37-16.4 371.47-18.9 372.57-21.4 374.47-23.2 376.37-25 378.89-26 381.42-27 384.22-27ZM384.22-24.6L384.22-24.6Q382.37-24.6 380.84-23.8 379.32-23 378.24-21.53 377.17-20.05 376.59-17.98 376.02-15.9 376.02-13.4L376.02-13.4Q376.02-10.8 376.59-8.7 377.17-6.6 378.24-5.13 379.32-3.65 380.82-2.85 382.32-2.05 384.22-2.05L384.22-2.05Q386.12-2.05 387.67-2.85 389.22-3.65 390.32-5.15 391.42-6.65 392.02-8.75 392.62-10.85 392.62-13.4L392.62-13.4Q392.62-15.9 392.02-17.95 391.42-20 390.32-21.48 389.22-22.95 387.67-23.78 386.12-24.6 384.22-24.6ZM440.76-7.75L439.91 0 415.91 0 415.91-0.2 433.21-24.4 427.66-24.4Q425.51-24.4 424.14-24.23 422.76-24.05 421.89-23.53 421.01-23 420.56-22.08 420.11-21.15 419.86-19.6L419.86-19.6 418.26-19.6 419.06-26.5 440.56-26.5 440.56-26.3 423.51-2.3 429.36-2.3Q431.91-2.3 433.59-2.5 435.26-2.7 436.34-3.3 437.41-3.9 438.04-4.95 438.66-6 439.11-7.75L439.11-7.75 440.76-7.75ZM453.51-27L453.51 0.1Q453.51 6.35 450.88 9.68 448.26 13 443.26 13L443.26 13Q440.06 13 438.03 11.73 436.01 10.45 436.01 8.35L436.01 8.35Q436.01 7.2 436.68 6.6 437.36 6 438.56 6L438.56 6Q439.46 6 439.93 6.43 440.41 6.85 441.16 8.35L441.16 8.35Q441.86 9.85 442.46 10.35 443.06 10.85 444.31 10.85L444.31 10.85Q446.71 10.85 447.66 9.2 448.61 7.55 448.61 3.4L448.61 3.4 448.61-14Q448.61-16.9 448.53-18.78 448.46-20.65 448.26-21.35L448.26-21.35Q448.01-22.5 447.11-22.93 446.21-23.35 443.71-23.35L443.71-23.35 443.71-25.1 453.51-27ZM447.86-37.15L447.86-37.15Q447.86-38.45 448.76-39.35 449.66-40.25 450.96-40.25L450.96-40.25Q452.26-40.25 453.16-39.35 454.06-38.45 454.06-37.15L454.06-37.15Q454.06-35.85 453.16-34.95 452.26-34.05 450.96-34.05L450.96-34.05Q449.66-34.05 448.76-34.95 447.86-35.85 447.86-37.15ZM482.61-6.05L484.16-4.65Q479.91 0.5 473.61 0.5L473.61 0.5Q470.66 0.5 468.26-0.48 465.86-1.45 464.13-3.23 462.41-5 461.46-7.48 460.51-9.95 460.51-12.95L460.51-12.95Q460.51-16 461.51-18.6 462.51-21.2 464.33-23.05 466.16-24.9 468.68-25.95 471.21-27 474.21-27L474.21-27Q479.06-27 481.71-24.38 484.36-21.75 484.36-16.85L484.36-16.85Q484.36-16.15 484.08-16 483.81-15.85 482.81-15.85L482.81-15.85 466.36-15.85Q466.26-15.45 466.21-14.88 466.16-14.3 466.16-13.6L466.16-13.6Q466.16-11 466.78-8.88 467.41-6.75 468.58-5.25 469.76-3.75 471.38-2.93 473.01-2.1 475.01-2.1L475.01-2.1Q477.11-2.1 478.91-3.03 480.71-3.95 482.61-6.05L482.61-6.05ZM466.71-18.15L475.91-18.15Q476.91-18.15 477.51-18.2 478.11-18.25 478.41-18.4 478.71-18.55 478.81-18.82 478.91-19.1 478.91-19.55L478.91-19.55Q478.91-21.85 477.43-23.23 475.96-24.6 473.41-24.6L473.41-24.6Q468.01-24.6 466.71-18.15L466.71-18.15ZM492-1.75L491 0 489.9 0 489.9-8.6 491.15-8.6Q493.1-1.55 498.25-1.55L498.25-1.55Q500.25-1.55 501.43-2.53 502.6-3.5 502.6-5.5L502.6-5.5Q502.6-6.25 502.38-6.78 502.15-7.3 501.53-7.88 500.9-8.45 499.78-9.2 498.65-9.95 496.8-11.1L496.8-11.1Q495.1-12.15 493.85-13.05 492.6-13.95 491.75-14.88 490.9-15.8 490.48-16.85 490.05-17.9 490.05-19.3L490.05-19.3Q490.05-21 490.63-22.43 491.2-23.85 492.2-24.85 493.2-25.85 494.55-26.43 495.9-27 497.5-27L497.5-27Q498.85-27 500.3-26.58 501.75-26.15 502.85-25.45L502.85-25.45 503.85-26.5 504.8-26.5 504.8-19.3 503.5-19.3Q502.4-22.35 501.1-23.65 499.8-24.95 497.9-24.95L497.9-24.95Q496.2-24.95 495.18-24.05 494.15-23.15 494.15-21.55L494.15-21.55Q494.15-20.7 494.43-20.08 494.7-19.45 495.3-18.85 495.9-18.25 496.83-17.63 497.75-17 499.05-16.2L499.05-16.2Q501.2-14.85 502.73-13.8 504.25-12.75 505.2-11.73 506.15-10.7 506.6-9.6 507.05-8.5 507.05-7.1L507.05-7.1Q507.05-3.55 504.75-1.53 502.45 0.5 498.7 0.5L498.7 0.5Q494.8 0.5 492-1.75L492-1.75ZM535.15-7.75L534.3 0 510.3 0 510.3-0.2 527.6-24.4 522.05-24.4Q519.9-24.4 518.53-24.23 517.15-24.05 516.28-23.53 515.4-23 514.95-22.08 514.5-21.15 514.25-19.6L514.25-19.6 512.65-19.6 513.45-26.5 534.95-26.5 534.95-26.3 517.9-2.3 523.75-2.3Q526.3-2.3 527.98-2.5 529.65-2.7 530.73-3.3 531.8-3.9 532.43-4.95 533.05-6 533.5-7.75L533.5-7.75 535.15-7.75Z" opacity="1" transform="matrix(1,0,0,1,0,0)" fill="#729343" class="undefined-text-1" data-fill-palette-color="secondary" id="text-1"></path></svg></g></svg></g></svg></g></svg></g><g transform="matrix(1,0,0,1,113.95289791749708,0)"><svg viewBox="0 0 169.59180416500575 150.4682203798714" height="150.4682203798714" width="169.59180416500575"><g><svg xmlns="http://www.w3.org/2000/svg" xmlns:xlink="http://www.w3.org/1999/xlink" version="1.0" x="0" y="0" viewBox="5.304864883422852 10.343999862670898 89.38980102539062 79.30998992919922" enable-background="new 0 0 100 100" xml:space="preserve" height="150.4682203798714" width="169.59180416500575" class="icon-icon-0" data-fill-palette-color="accent" id="icon-0"><g fill="#729343" data-fill-palette-color="accent"><path fill="#729343" d="M94.104 44.674c-0.533-0.829-1.358-1.4-2.322-1.607-0.967-0.209-1.952-0.029-2.78 0.506l-4.638 2.99v-2.615c0-0.516-0.418-0.934-0.935-0.934H16.11c-0.517 0-0.935 0.418-0.935 0.934l-0.008 2.31L11 43.572c-0.829-0.535-1.816-0.715-2.781-0.508-0.964 0.209-1.789 0.78-2.324 1.608-0.533 0.829-0.714 1.815-0.506 2.78 0.208 0.964 0.779 1.789 1.608 2.322l8.138 5.248v16.563c0 0.03 0.001 0.06 0.004 0.088l0.086 0.909c0.021 5.613 3.877 10.327 9.074 11.688-0.252 0.51-0.4 1.068-0.4 1.65 0 2.061 1.674 3.734 3.733 3.734h44.193c2.06 0 3.734-1.676 3.734-3.734 0-0.572-0.146-1.125-0.392-1.63 5.252-1.335 9.153-6.091 9.153-11.753V55.373l8.681-5.598c0.829-0.534 1.399-1.358 1.608-2.322C94.819 46.49 94.64 45.502 94.104 44.674zM7.215 47.061c-0.104-0.477-0.015-0.965 0.25-1.375 0.264-0.41 0.672-0.691 1.148-0.795 0.479-0.104 0.966-0.014 1.375 0.252l5.17 3.332-0.018 4.334-7.133-4.6C7.6 47.943 7.317 47.536 7.215 47.061zM73.237 84.702c0.293 0.339 0.455 0.772 0.455 1.222 0 1.03-0.838 1.868-1.867 1.868H27.632c-1.028 0-1.866-0.837-1.866-1.868 0-0.474 0.178-0.926 0.5-1.273 0.008-0.008 0.01-0.018 0.016-0.025 0.357 0.031 0.719 0.055 1.082 0.055h44.823c0.338 0 0.668-0.023 1-0.051C73.202 84.652 73.218 84.679 73.237 84.702zM82.496 54.568c-0.026 0.086-0.04 0.177-0.04 0.271v17.7c0 5.664-4.607 10.271-10.271 10.271H27.364c-3.19 0-6.047-1.463-7.932-3.754h13.346c0.516 0 0.934-0.416 0.934-0.934 0-0.516-0.418-0.934-0.934-0.934H18.462c-0.079 0-0.155 0.013-0.229 0.031-0.59-1.148-0.975-2.419-1.095-3.767h10.038c0.516 0 0.934-0.418 0.934-0.935 0-0.516-0.418-0.934-0.934-0.934H17.007l-0.005-0.042v-3.69h4.57c0.516 0 0.935-0.418 0.935-0.935s-0.419-0.935-0.935-0.935h-4.57V54.547l0.04-6.57v-3.095h65.454V54.568zM92.786 47.059c-0.104 0.478-0.385 0.885-0.795 1.149l-7.629 4.919v-4.344l5.65-3.643c0.41-0.265 0.897-0.354 1.374-0.25 0.476 0.104 0.884 0.385 1.148 0.795S92.889 46.584 92.786 47.059z" data-fill-palette-color="accent"></path><path fill="#729343" d="M20.276 14.35c0.345 0 0.621-0.279 0.621-0.623v-2.76c0-0.344-0.276-0.623-0.621-0.623-0.344 0-0.623 0.278-0.623 0.623v2.76C19.653 14.07 19.932 14.35 20.276 14.35z" data-fill-palette-color="accent"></path><path fill="#729343" d="M20.276 22.625c0.345 0 0.621-0.279 0.621-0.622v-2.759c0-0.344-0.276-0.623-0.621-0.623-0.344 0-0.623 0.279-0.623 0.623v2.759C19.653 22.346 19.932 22.625 20.276 22.625z" data-fill-palette-color="accent"></path><path fill="#729343" d="M22.412 16.484c0 0.345 0.278 0.623 0.623 0.623h2.759c0.344 0 0.622-0.278 0.622-0.623 0-0.344-0.278-0.623-0.622-0.623h-2.759C22.69 15.861 22.412 16.141 22.412 16.484z" data-fill-palette-color="accent"></path><path fill="#729343" d="M14.758 17.107h2.76c0.344 0 0.621-0.278 0.621-0.623 0-0.344-0.277-0.623-0.621-0.623h-2.76c-0.344 0-0.622 0.279-0.622 0.623C14.136 16.829 14.415 17.107 14.758 17.107z" data-fill-palette-color="accent"></path><path fill="#729343" d="M17.077 14.166c0.121 0.122 0.281 0.184 0.439 0.184 0.159 0 0.318-0.062 0.44-0.183 0.243-0.243 0.243-0.638 0.001-0.88l-1.031-1.031c-0.242-0.244-0.638-0.243-0.88 0-0.243 0.243-0.243 0.637-0.001 0.88L17.077 14.166z" data-fill-palette-color="accent"></path><path fill="#729343" d="M22.594 18.804c-0.242 0.243-0.242 0.638 0 0.88l1.031 1.031c0.121 0.122 0.279 0.184 0.439 0.184s0.318-0.062 0.44-0.184c0.243-0.243 0.243-0.637 0-0.88l-1.03-1.031C23.231 18.561 22.837 18.561 22.594 18.804z" data-fill-palette-color="accent"></path><path fill="#729343" d="M23.035 14.35c0.159 0 0.317-0.062 0.44-0.183l1.03-1.03c0.243-0.242 0.243-0.637 0-0.88-0.243-0.244-0.638-0.243-0.881 0l-1.031 1.029c-0.243 0.243-0.243 0.637 0 0.88C22.715 14.288 22.875 14.35 23.035 14.35z" data-fill-palette-color="accent"></path><path fill="#729343" d="M17.077 18.804l-1.029 1.03c-0.243 0.243-0.243 0.637 0 0.88 0.121 0.122 0.281 0.183 0.439 0.183s0.318-0.061 0.439-0.183l1.03-1.028c0.243-0.244 0.243-0.638 0-0.881C17.713 18.562 17.319 18.561 17.077 18.804z" data-fill-palette-color="accent"></path><path fill="#729343" d="M31.727 37.124c1.863 0 3.381-1.517 3.381-3.381 0-1.865-1.518-3.382-3.381-3.382-1.865 0-3.382 1.518-3.382 3.382S29.862 37.124 31.727 37.124zM31.727 31.605c1.178 0 2.135 0.959 2.135 2.137s-0.957 2.136-2.135 2.136c-1.18 0-2.137-0.958-2.137-2.136S30.547 31.605 31.727 31.605z" data-fill-palette-color="accent"></path><path fill="#729343" d="M54.144 30.175c3.024 0 5.485-2.461 5.485-5.487 0-3.024-2.461-5.486-5.485-5.486-3.026 0-5.489 2.461-5.489 5.486C48.653 27.714 51.116 30.175 54.144 30.175zM54.144 20.445c2.338 0 4.24 1.904 4.24 4.242 0 2.34-1.902 4.242-4.24 4.242-2.341 0-4.243-1.902-4.243-4.242C49.899 22.35 51.803 20.445 54.144 20.445z" data-fill-palette-color="accent"></path><path fill="#729343" d="M60.629 20.291c1.151 0 2.087-0.938 2.087-2.089s-0.936-2.087-2.087-2.087c-1.153 0-2.089 0.937-2.089 2.087C58.54 19.354 59.476 20.291 60.629 20.291zM60.629 17.048c0.638 0 1.153 0.519 1.153 1.154 0 0.637-0.518 1.155-1.153 1.155-0.638 0-1.155-0.52-1.155-1.155C59.474 17.564 59.991 17.048 60.629 17.048z" data-fill-palette-color="accent"></path><path fill="#729343" d="M51.649 24.857c0.021 0 0.045 0 0.067-0.004 0.255-0.037 0.433-0.273 0.396-0.528-0.051-0.361 0.084-0.761 0.373-1.093 0.272-0.316 0.641-0.514 0.955-0.514 0.258 0 0.467-0.209 0.467-0.467s-0.209-0.467-0.467-0.467c-0.586 0-1.207 0.312-1.66 0.835-0.467 0.538-0.684 1.208-0.592 1.838C51.224 24.691 51.421 24.857 51.649 24.857z" data-fill-palette-color="accent"></path><circle fill="#729343" cx="52.069" cy="26.187" r="0.61" data-fill-palette-color="accent"></circle><path fill="#729343" d="M73.235 35.914c0.259 0 0.468-0.209 0.468-0.467v-1.381c0-0.258-0.209-0.467-0.468-0.467-0.258 0-0.467 0.209-0.467 0.467v1.381C72.771 35.705 72.979 35.914 73.235 35.914z" data-fill-palette-color="accent"></path><path fill="#729343" d="M73.235 40.674c0.259 0 0.468-0.209 0.468-0.467v-1.378c0-0.259-0.209-0.468-0.468-0.468-0.258 0-0.467 0.209-0.467 0.468v1.378C72.771 40.465 72.979 40.674 73.235 40.674z" data-fill-palette-color="accent"></path><path fill="#729343" d="M74.614 37.915h1.381c0.258 0 0.467-0.209 0.467-0.468 0-0.256-0.209-0.467-0.467-0.467h-1.381c-0.258 0-0.467 0.209-0.467 0.467C74.149 37.706 74.356 37.915 74.614 37.915z" data-fill-palette-color="accent"></path><path fill="#729343" d="M70.478 37.915h1.379c0.258 0 0.467-0.209 0.467-0.468 0-0.256-0.209-0.467-0.467-0.467h-1.379c-0.258 0-0.467 0.209-0.467 0.467C70.011 37.706 70.22 37.915 70.478 37.915z" data-fill-palette-color="accent"></path><path fill="#729343" d="M71.524 36.398c0.093 0.092 0.211 0.138 0.332 0.138 0.119 0 0.238-0.046 0.328-0.138 0.185-0.182 0.185-0.478 0.002-0.66l-0.515-0.514c-0.183-0.184-0.479-0.184-0.66 0-0.183 0.182-0.183 0.477-0.001 0.659L71.524 36.398z" data-fill-palette-color="accent"></path><path fill="#729343" d="M74.801 39.674c0.091 0.092 0.21 0.137 0.33 0.137 0.119 0 0.239-0.045 0.33-0.137 0.183-0.183 0.183-0.479 0-0.66l-0.517-0.515c-0.183-0.183-0.478-0.183-0.659 0-0.183 0.183-0.183 0.478 0 0.66L74.801 39.674z" data-fill-palette-color="accent"></path><path fill="#729343" d="M74.614 36.537c0.119 0 0.24-0.046 0.33-0.137l0.517-0.517c0.183-0.183 0.183-0.478 0-0.659-0.183-0.184-0.478-0.184-0.66 0l-0.516 0.516c-0.183 0.182-0.183 0.478 0 0.66C74.377 36.491 74.495 36.537 74.614 36.537z" data-fill-palette-color="accent"></path><path fill="#729343" d="M71.524 38.499l-0.514 0.517c-0.182 0.182-0.182 0.478 0.001 0.659 0.093 0.091 0.212 0.136 0.329 0.136 0.12 0 0.239-0.045 0.331-0.137l0.515-0.515c0.183-0.183 0.183-0.478-0.002-0.66C72.003 38.314 71.708 38.316 71.524 38.499z" data-fill-palette-color="accent"></path><circle fill="#729343" cx="36.583" cy="78.124" r="0.93" data-fill-palette-color="accent"></circle></g></svg></g></svg></g><g></g></svg></g><defs></defs></svg><rect width="314.9084539350031" height="247.2" fill="none" stroke="none" visibility="hidden"></rect></g></svg></g></svg>