<svg width="1080" height="320" xmlns="http://www.w3.org/2000/svg" xml:space="preserve" version="1.1">
 <desc>Created with Fabric.js 5.2.4</desc>

 <g>
  <title>Layer 1</title>
  <g id="de838e8f-924d-4009-9142-67ea50cb4d30" transform="matrix(1 0 0 1 540 540)"/>
  <g id="09946f7b-2f86-407b-a9cf-6ee69d45f8a7" transform="matrix(1 0 0 1 540 540)"/>
  <g id="svg_6">
   <g id="svg_2" transform="matrix(4.91 0 0 4.91 540 120.26)">
    <path id="svg_3" fill-rule=" nonzero" fill=" rgb(114,147,67)" stroke-miterlimit="4" stroke-linejoin=" miter" stroke-dashoffset="0" stroke-dasharray=" none" stroke=" none" stroke-linecap=" butt" d="m-86.42,17.48l-11.35,0q-1.5,0 -2.55,-1.05q-1.05,-1.05 -1.05,-2.55l0,0l0,-27.85q0,-1.45 1.05,-2.5q1.05,-1.05 2.55,-1.05l0,0l11.35,0q1.5,0 2.55,1.05q1.05,1.05 1.05,2.5l0,0l0,7.8l-4.65,-1.05l0,-3.9q0,-0.75 -0.52,-1.28q-0.53,-0.52 -1.28,-0.52l0,0l-5.65,0q-0.75,0 -1.27,0.52q-0.53,0.53 -0.53,1.28l0,0l0,22.15q0,0.75 0.53,1.27q0.52,0.53 1.27,0.53l0,0l5.65,0q0.75,0 1.28,-0.53q0.52,-0.52 0.52,-1.27l0,0l0,-4.85l-4.6,0l1.05,-4.65l8.2,0l0,12.35q0,1.5 -1.05,2.55q-1.05,1.05 -2.55,1.05l0,0zm12.45,0.05l-4.65,0l7.05,-35l4.55,0l6.95,35l-4.65,0l-1.35,-6.55l-6.65,0l-1.25,6.55zm4.7,-23.6l-2.55,12.45l4.95,0l-2.4,-12.45zm16.45,23.55l-4.65,0l0,-35l15,0q1.45,0 2.5,1.05q1.05,1.05 1.05,2.55l0,0l0,10.75q0,1.5 -1.05,2.55q-1.05,1.05 -2.5,1.05l0,0l-1.05,0l4.6,17.05l-4.6,0l-4.65,-17.05l-4.65,0l0,17.05zm0,-30.35l0,8.65l7.5,0q0.7,0 1.25,-0.53q0.55,-0.52 0.55,-1.27l0,0l0,-5.05q0,-0.75 -0.55,-1.28q-0.55,-0.52 -1.25,-0.52l0,0l-7.5,0zm22.64,30.35l-4.65,0l0,-35l4.65,0l9.3,23.35l0,-23.35l4.65,0l0,35l-4.65,0l-9.3,-23.35l0,23.35zm32.1,0l-11.35,0q-1.5,0 -2.55,-1.05q-1.05,-1.05 -1.05,-2.55l0,0l0,-31.4l4.65,0l0,28.6q0,0.7 0.53,1.22q0.52,0.53 1.27,0.53l0,0l5.65,0q0.75,0 1.27,-0.53q0.53,-0.52 0.53,-1.22l0,0l0,-28.6l4.65,0l0,31.4q0,1.5 -1.05,2.55q-1.05,1.05 -2.55,1.05l0,0zm22.15,0l-11.35,0q-1.5,0 -2.55,-1.05q-1.05,-1.05 -1.05,-2.55l0,0l0,-7.75l4.65,1.05l0,3.85q0,0.75 0.52,1.27q0.53,0.53 1.23,0.53l0,0l5.7,0q0.75,0 1.27,-0.53q0.53,-0.52 0.53,-1.27l0,0l0,-8.8q0,-0.75 -0.53,-1.28q-0.52,-0.52 -1.27,-0.52l0,0l-8.5,0q-1.5,0 -2.55,-1.05q-1.05,-1.05 -1.05,-2.55l0,0l0,-10.75q0,-1.5 1.05,-2.55q1.05,-1.05 2.55,-1.05l0,0l11.35,0q1.5,0 2.55,1.05q1.05,1.05 1.05,2.55l0,0l0,5.4l-4.65,-1.1l0,-1.45q0,-0.75 -0.53,-1.28q-0.52,-0.52 -1.27,-0.52l0,0l-5.7,0q-0.7,0 -1.23,0.52q-0.52,0.53 -0.52,1.28l0,0l0,5.05q0,0.75 0.52,1.27q0.53,0.53 1.23,0.53l0,0l8.55,0q1.5,0 2.55,1.05q1.05,1.05 1.05,2.55l0,0l0,14.5q0,1.5 -1.05,2.55q-1.05,1.05 -2.55,1.05l0,0zm28.25,0l-18.55,0l6.75,-17.05l-2.65,0l1.85,-4.65l2.65,0l3.45,-8.65l-12.05,0l0,-4.65l18.55,0l-5.3,13.3l2.7,0l-1.8,4.65l-2.75,0l-4.95,12.4l12.1,0l0,4.65zm24.79,0l-18.6,0l0,-35l18.6,0l0,4.6l-13.95,0l0,8.7l9.3,0l-1.05,4.65l-8.25,0l0,12.4l13.95,0l0,4.65zm10.35,0l-4.65,0l0,-35l4.65,0l0,23.35l9.25,-23.35l4.65,0l-6.95,17.5l6.95,17.5l-4.65,0l-4.6,-11.65l-4.65,11.65z" vector-effect="non-scaling-stroke"/>
   </g>
   <g id="svg_4" transform="matrix(1.15 0 0 1.15 539.41 277.37)">
    <path id="svg_5" fill-rule=" nonzero" fill=" rgb(114,147,67)" stroke-miterlimit="4" stroke-linejoin=" miter" stroke-dashoffset="0" stroke-dasharray=" none" stroke=" none" stroke-linecap=" butt" d="m-242.26999,5.88l-0.85,7.75l-24,0l0,-0.2l17.3,-24.2l-5.55,0q-2.15,0 -3.52,0.17q-1.38,0.18 -2.25,0.7q-0.88,0.53 -1.33,1.45q-0.45,0.93 -0.7,2.48l0,0l-1.6,0l0.8,-6.9l21.5,0l0,0.2l-17.05,24l5.85,0q2.55,0 4.22,-0.2q1.68,-0.2 2.76,-0.8q1.07,-0.6 1.7,-1.65q0.62,-1.05 1.07,-2.8l0,0l1.65,0zm27.25,-6.8l0,6.7q0,2.05 0.1,3.22q0.1,1.18 0.52,1.8q0.43,0.63 1.25,0.83q0.83,0.2 2.28,0.3l0,0l0,1.7l-13.1,0l0,-1.7q1.4,-0.1 2.22,-0.3q0.83,-0.2 1.28,-0.8q0.45,-0.6 0.57,-1.7q0.13,-1.1 0.13,-3l0,0l0,-6.65q0,-5.95 -0.3,-7.25l0,0q-0.15,-0.65 -0.38,-1.08q-0.22,-0.42 -0.67,-0.65q-0.45,-0.22 -1.15,-0.3q-0.7,-0.07 -1.8,-0.07l0,0l0,-1.6l8,-1.9l0.6,4.95l0.2,0q1.9,-2.35 4.45,-3.65q2.55,-1.3 5.55,-1.3l0,0q2.3,0 4.2,0.75q1.9,0.75 2.9,2.05l0,0q0.85,1.15 1.2,2.97q0.35,1.83 0.35,5.03l0,0l0,8.35q0,2.05 0.12,3.22q0.13,1.18 0.53,1.8q0.4,0.63 1.22,0.83q0.83,0.2 2.18,0.3l0,0l0,1.7l-12.95,0l0,-1.7q1.4,-0.05 2.22,-0.28q0.83,-0.22 1.25,-0.82q0.43,-0.6 0.55,-1.73q0.13,-1.12 0.13,-2.97l0,0l0,-6.6q0,-2.85 -0.3,-4.8q-0.3,-1.95 -0.98,-3.15q-0.67,-1.2 -1.77,-1.73q-1.1,-0.52 -2.65,-0.52l0,0q-2.25,0 -4.13,1.17q-1.87,1.18 -2.92,3.23l0,0q-0.25,0.5 -0.43,0.95q-0.17,0.45 -0.27,1.05q-0.1,0.6 -0.15,1.37q-0.05,0.78 -0.05,1.98l0,0zm41.09,3.7l0,-3.95q-2.85,1.1 -4.82,2.15q-1.98,1.05 -3.18,2.1q-1.2,1.05 -1.72,2.1q-0.53,1.05 -0.53,2.15l0,0q0,1.65 1.1,2.7q1.1,1.05 2.9,1.05l0,0q1.3,0 2.43,-0.65q1.12,-0.65 1.97,-1.78q0.85,-1.12 1.35,-2.65q0.5,-1.52 0.5,-3.22l0,0zm-7.2,-2.95l7.2,-3.15l0,-2.05q0,-6.1 -5.2,-6.1l0,0q-0.85,0 -1.45,0.15q-0.6,0.15 -1,0.5q-0.4,0.35 -0.72,1q-0.33,0.65 -0.63,1.6l0,0q-0.55,1.45 -1.07,1.92q-0.53,0.48 -1.53,0.48l0,0q-2.5,0 -2.5,-2.5l0,0q0,-2.4 2.55,-3.73q2.55,-1.32 7.25,-1.32l0,0q5,0 7.1,1.77q2.1,1.78 2.1,6.03l0,0l0,11.2q0,5.7 2.25,5.7l0,0q0.7,0 1.35,-0.18q0.65,-0.17 1.1,-0.92l0,0l0.7,1.2q-0.6,1.15 -2.2,1.92q-1.6,0.78 -3.35,0.78l0,0q-2.2,0 -3.27,-1.4q-1.08,-1.4 -1.08,-3.95l0,0l-0.25,0q-1.3,2.45 -3.6,3.87q-2.3,1.43 -5.1,1.43l0,0q-3.15,0 -4.95,-1.6q-1.8,-1.6 -1.8,-4.3l0,0q0,-1.2 0.43,-2.3q0.42,-1.1 1.37,-2.1q0.95,-1 2.5,-1.98q1.55,-0.97 3.8,-1.97l0,0zm28.5,-0.55l0,6.35q0,2.1 0.1,3.3q0.1,1.2 0.53,1.82q0.42,0.63 1.22,0.83q0.8,0.2 2.25,0.3l0,0l0,1.75l-13.3,0l0,-1.75q1.45,-0.1 2.3,-0.3q0.85,-0.2 1.3,-0.8q0.45,-0.6 0.58,-1.73q0.12,-1.12 0.12,-3.02l0,0l0,-6.4q0,-2.85 -0.07,-4.75q-0.08,-1.9 -0.28,-2.6l0,0q-0.15,-0.65 -0.35,-1.03q-0.2,-0.37 -0.65,-0.6q-0.45,-0.22 -1.17,-0.3q-0.73,-0.07 -1.88,-0.07l0,0l0,-1.75l8.15,-1.9l0.65,5l0.25,0q2.25,-2.55 4.73,-3.78q2.47,-1.22 5.47,-1.22l0,0q3.15,0 5.3,1.27q2.15,1.28 3,3.68l0,0l0.2,0q1.85,-2.35 4.5,-3.65q2.65,-1.3 5.65,-1.3l0,0q2.35,0 4.28,0.77q1.92,0.78 2.92,2.13l0,0q0.9,1.15 1.28,3.02q0.37,1.88 0.37,5.13l0,0l0,7.95q0,2.05 0.13,3.25q0.12,1.2 0.52,1.85q0.4,0.65 1.23,0.85q0.82,0.2 2.27,0.3l0,0l0,1.75l-13.3,0l0,-1.75q1.4,-0.05 2.25,-0.27q0.85,-0.23 1.3,-0.86q0.45,-0.62 0.58,-1.72q0.12,-1.1 0.12,-3l0,0l0,-6.3q0,-2.85 -0.3,-4.83q-0.3,-1.97 -1,-3.2q-0.7,-1.22 -1.82,-1.77q-1.13,-0.55 -2.73,-0.55l0,0q-2.2,0 -4.12,1.22q-1.93,1.23 -3.03,3.28l0,0q-0.25,0.5 -0.42,0.97q-0.18,0.48 -0.28,1.05q-0.1,0.58 -0.12,1.38q-0.03,0.8 -0.03,2l0,0l0,6.35q0,2.05 0.1,3.25q0.1,1.2 0.53,1.85q0.42,0.65 1.27,0.85q0.85,0.2 2.3,0.3l0,0l0,1.75l-13.3,0l0,-1.75q1.4,-0.1 2.25,-0.3q0.85,-0.2 1.28,-0.8q0.42,-0.6 0.55,-1.73q0.12,-1.12 0.12,-3.02l0,0l0,-6.3q0,-2.9 -0.3,-4.88q-0.3,-1.97 -0.97,-3.2q-0.68,-1.22 -1.78,-1.75q-1.1,-0.52 -2.7,-0.52l0,0q-2.25,0 -4.22,1.22q-1.98,1.23 -2.98,3.28l0,0q-0.25,0.5 -0.42,0.97q-0.18,0.48 -0.28,1.05q-0.1,0.58 -0.12,1.38q-0.03,0.8 -0.03,2l0,0zm54,-12.65l0,19.05q0,1.95 0.17,3.12q0.18,1.18 0.68,1.85q0.5,0.68 1.4,0.93q0.9,0.25 2.4,0.3l0,0l0,1.75l-14.35,0l0,-1.75q1.5,-0.05 2.45,-0.33q0.95,-0.27 1.47,-0.9q0.53,-0.62 0.7,-1.75q0.18,-1.12 0.18,-2.87l0,0l0,-6.4q0,-2.9 -0.08,-4.78q-0.07,-1.87 -0.27,-2.57l0,0q-0.25,-1.15 -1.15,-1.58q-0.9,-0.42 -3.4,-0.42l0,0l0,-1.75l9.8,-1.9zm-5.75,-10.15l0,0q0,-1.3 0.9,-2.2q0.9,-0.9 2.2,-0.9l0,0q1.3,0 2.2,0.9q0.9,0.9 0.9,2.2l0,0q0,1.3 -0.9,2.2q-0.9,0.9 -2.2,0.9l0,0q-1.3,0 -2.2,-0.9q-0.9,-0.9 -0.9,-2.2zm45.59,19.2l-7.35,18.45l-1.85,0l-6.5,-20.8q-0.45,-1.4 -0.85,-2.25q-0.4,-0.85 -0.95,-1.35q-0.55,-0.5 -1.3,-0.68q-0.75,-0.17 -1.85,-0.17l0,0l0,-1.75l13.25,0l0,1.75q-1.95,0 -2.75,0.45q-0.8,0.45 -0.8,1.55l0,0q0,0.5 0.15,1.17q0.15,0.68 0.4,1.68l0,0l3.4,11.95l0.2,0l7.35,-18.55l1.55,0l6.65,18.55l0.2,0l3,-8.1q0.6,-1.65 1,-2.77q0.4,-1.13 0.63,-1.91q0.22,-0.77 0.32,-1.27q0.1,-0.5 0.1,-0.95l0,0q0,-1.1 -0.65,-1.45q-0.65,-0.35 -2.7,-0.35l0,0l0,-1.75l10,0l0,1.75q-0.75,0 -1.27,0.22q-0.53,0.23 -1.05,0.88q-0.53,0.65 -1.08,1.85q-0.55,1.2 -1.35,3.15l0,0l-7.75,19.15l-1.85,0l-6.1,-18.45l-0.2,0zm32.75,-9.05l0,19.05q0,1.95 0.18,3.12q0.17,1.18 0.67,1.85q0.5,0.68 1.4,0.93q0.9,0.25 2.4,0.3l0,0l0,1.75l-14.35,0l0,-1.75q1.5,-0.05 2.45,-0.33q0.95,-0.27 1.48,-0.9q0.52,-0.62 0.7,-1.75q0.17,-1.12 0.17,-2.87l0,0l0,-6.4q0,-2.9 -0.07,-4.78q-0.08,-1.87 -0.28,-2.57l0,0q-0.25,-1.15 -1.15,-1.58q-0.9,-0.42 -3.4,-0.42l0,0l0,-1.75l9.8,-1.9zm-5.75,-10.15l0,0q0,-1.3 0.9,-2.2q0.9,-0.9 2.2,-0.9l0,0q1.3,0 2.2,0.9q0.9,0.9 0.9,2.2l0,0q0,1.3 -0.9,2.2q-0.9,0.9 -2.2,0.9l0,0q-1.3,0 -2.2,-0.9q-0.9,-0.9 -0.9,-2.2zm35.95,31.1l1.55,1.4q-4.25,5.15 -10.55,5.15l0,0q-2.95,0 -5.35,-0.98q-2.4,-0.97 -4.13,-2.75q-1.72,-1.77 -2.67,-4.25q-0.95,-2.47 -0.95,-5.47l0,0q0,-3.05 1,-5.65q1,-2.6 2.82,-4.45q1.83,-1.85 4.35,-2.9q2.53,-1.05 5.53,-1.05l0,0q4.85,0 7.5,2.62q2.65,2.63 2.65,7.53l0,0q0,0.7 -0.28,0.85q-0.27,0.15 -1.27,0.15l0,0l-16.45,0q-0.1,0.4 -0.15,0.97q-0.05,0.58 -0.05,1.28l0,0q0,2.6 0.62,4.72q0.63,2.13 1.8,3.63q1.18,1.5 2.8,2.32q1.63,0.83 3.63,0.83l0,0q2.1,0 3.9,-0.93q1.8,-0.92 3.7,-3.02l0,0zm-15.9,-12.1l9.2,0q1,0 1.6,-0.05q0.6,-0.05 0.9,-0.2q0.3,-0.15 0.4,-0.42q0.1,-0.28 0.1,-0.73l0,0q0,-2.3 -1.48,-3.68q-1.47,-1.37 -4.02,-1.37l0,0q-5.4,0 -6.7,6.45l0,0zm25.3,16.4l-1,1.75l-1.1,0l0,-8.6l1.25,0q1.95,7.05 7.1,7.05l0,0q2,0 3.17,-0.98q1.18,-0.97 1.18,-2.97l0,0q0,-0.75 -0.23,-1.28q-0.22,-0.52 -0.85,-1.1q-0.62,-0.57 -1.75,-1.32q-1.12,-0.75 -2.97,-1.9l0,0q-1.7,-1.05 -2.95,-1.95q-1.25,-0.9 -2.1,-1.83q-0.85,-0.92 -1.28,-1.97q-0.42,-1.05 -0.42,-2.45l0,0q0,-1.7 0.57,-3.13q0.58,-1.42 1.58,-2.42q1,-1 2.35,-1.58q1.35,-0.57 2.95,-0.57l0,0q1.35,0 2.8,0.42q1.45,0.43 2.55,1.13l0,0l1,-1.05l0.95,0l0,7.2l-1.3,0q-1.1,-3.05 -2.4,-4.35q-1.3,-1.3 -3.2,-1.3l0,0q-1.7,0 -2.73,0.9q-1.02,0.9 -1.02,2.5l0,0q0,0.85 0.27,1.47q0.28,0.63 0.88,1.23q0.6,0.6 1.52,1.22q0.93,0.63 2.23,1.43l0,0q2.15,1.35 3.67,2.4q1.53,1.05 2.48,2.07q0.95,1.03 1.4,2.13q0.45,1.1 0.45,2.5l0,0q0,3.55 -2.3,5.57q-2.3,2.03 -6.05,2.03l0,0q-3.9,0 -6.7,-2.25l0,0zm43.14,-6l-0.85,7.75l-24,0l0,-0.2l17.3,-24.2l-5.55,0q-2.15,0 -3.52,0.17q-1.38,0.18 -2.25,0.7q-0.88,0.53 -1.33,1.45q-0.45,0.93 -0.7,2.48l0,0l-1.6,0l0.8,-6.9l21.5,0l0,0.2l-17.05,24l5.85,0q2.55,0 4.23,-0.2q1.67,-0.2 2.75,-0.8q1.07,-0.6 1.7,-1.65q0.62,-1.05 1.07,-2.8l0,0l1.65,0zm40.25,2.15l1.5,1.45q-1.8,2.2 -4.65,3.42q-2.85,1.23 -6.15,1.23l0,0q-2.65,0 -4.88,-0.98q-2.22,-0.97 -3.82,-2.75q-1.6,-1.77 -2.48,-4.27q-0.87,-2.5 -0.87,-5.55l0,0q0,-3.2 1,-5.77q1,-2.58 2.82,-4.41q1.83,-1.82 4.4,-2.8q2.58,-0.97 5.68,-0.97l0,0q1.95,0 3.55,0.32q1.6,0.33 2.77,0.9q1.18,0.58 1.83,1.4q0.65,0.83 0.65,1.78l0,0q0,1 -0.65,1.55q-0.65,0.55 -1.8,0.55l0,0q-0.9,0 -1.5,-0.38q-0.6,-0.37 -1.55,-1.67l0,0q-1,-1.15 -1.93,-1.63q-0.92,-0.47 -2.37,-0.47l0,0q-3.55,0 -5.38,2.75q-1.82,2.75 -1.82,8.1l0,0q0,5.75 2.02,8.72q2.03,2.98 5.93,2.98l0,0q2.1,0 3.95,-0.83q1.85,-0.82 3.75,-2.67l0,0zm19.25,-21.4l0,0q2.85,0 5.4,1.02q2.55,1.03 4.47,2.83q1.93,1.8 3.05,4.27q1.13,2.48 1.13,5.43l0,0q0,3.05 -1.13,5.6q-1.12,2.55 -3.05,4.4q-1.92,1.85 -4.47,2.9q-2.55,1.05 -5.4,1.05l0,0q-2.8,0 -5.33,-1.03q-2.52,-1.02 -4.42,-2.87q-1.9,-1.85 -3,-4.43q-1.1,-2.57 -1.1,-5.62l0,0q0,-2.95 1.1,-5.45q1.1,-2.5 3,-4.3q1.9,-1.8 4.42,-2.8q2.53,-1 5.33,-1zm0,2.4l0,0q-1.85,0 -3.38,0.8q-1.52,0.8 -2.6,2.27q-1.07,1.48 -1.65,3.55q-0.57,2.08 -0.57,4.58l0,0q0,2.6 0.57,4.7q0.58,2.1 1.65,3.57q1.08,1.48 2.58,2.28q1.5,0.8 3.4,0.8l0,0q1.9,0 3.45,-0.8q1.55,-0.8 2.65,-2.3q1.1,-1.5 1.7,-3.6q0.6,-2.1 0.6,-4.65l0,0q0,-2.5 -0.6,-4.55q-0.6,-2.05 -1.7,-3.53q-1.1,-1.47 -2.65,-2.3q-1.55,-0.82 -3.45,-0.82zm56.54,16.85l-0.85,7.75l-24,0l0,-0.2l17.3,-24.2l-5.55,0q-2.15,0 -3.52,0.17q-1.38,0.18 -2.25,0.7q-0.88,0.53 -1.33,1.45q-0.45,0.93 -0.7,2.48l0,0l-1.6,0l0.8,-6.9l21.5,0l0,0.2l-17.05,24l5.85,0q2.55,0 4.23,-0.2q1.67,-0.2 2.75,-0.8q1.07,-0.6 1.7,-1.65q0.62,-1.05 1.07,-2.8l0,0l1.65,0zm12.75,-19.25l0,27.1q0,6.25 -2.63,9.58q-2.62,3.32 -7.62,3.32l0,0q-3.2,0 -5.23,-1.27q-2.02,-1.28 -2.02,-3.38l0,0q0,-1.15 0.67,-1.75q0.68,-0.6 1.88,-0.6l0,0q0.9,0 1.37,0.43q0.48,0.42 1.23,1.92l0,0q0.7,1.5 1.3,2q0.6,0.5 1.85,0.5l0,0q2.4,0 3.35,-1.65q0.95,-1.65 0.95,-5.8l0,0l0,-17.4q0,-2.9 -0.08,-4.78q-0.07,-1.87 -0.27,-2.57l0,0q-0.25,-1.15 -1.15,-1.58q-0.9,-0.42 -3.4,-0.42l0,0l0,-1.75l9.8,-1.9zm-5.65,-10.15l0,0q0,-1.3 0.9,-2.2q0.9,-0.9 2.2,-0.9l0,0q1.3,0 2.2,0.9q0.9,0.9 0.9,2.2l0,0q0,1.3 -0.9,2.2q-0.9,0.9 -2.2,0.9l0,0q-1.3,0 -2.2,-0.9q-0.9,-0.9 -0.9,-2.2zm34.75,31.1l1.55,1.4q-4.25,5.15 -10.55,5.15l0,0q-2.95,0 -5.35,-0.98q-2.4,-0.97 -4.13,-2.75q-1.72,-1.77 -2.67,-4.25q-0.95,-2.47 -0.95,-5.47l0,0q0,-3.05 1,-5.65q1,-2.6 2.82,-4.45q1.83,-1.85 4.35,-2.9q2.53,-1.05 5.53,-1.05l0,0q4.85,0 7.5,2.62q2.65,2.63 2.65,7.53l0,0q0,0.7 -0.28,0.85q-0.27,0.15 -1.27,0.15l0,0l-16.45,0q-0.1,0.4 -0.15,0.97q-0.05,0.58 -0.05,1.28l0,0q0,2.6 0.62,4.72q0.63,2.13 1.8,3.63q1.18,1.5 2.8,2.32q1.63,0.83 3.63,0.83l0,0q2.1,0 3.9,-0.93q1.8,-0.92 3.7,-3.02l0,0zm-15.9,-12.1l9.2,0q1,0 1.6,-0.05q0.6,-0.05 0.9,-0.2q0.3,-0.15 0.4,-0.42q0.1,-0.28 0.1,-0.73l0,0q0,-2.3 -1.48,-3.68q-1.47,-1.37 -4.02,-1.37l0,0q-5.4,0 -6.7,6.45l0,0zm25.29,16.4l-1,1.75l-1.1,0l0,-8.6l1.25,0q1.95,7.05 7.1,7.05l0,0q2,0 3.18,-0.98q1.17,-0.97 1.17,-2.97l0,0q0,-0.75 -0.22,-1.28q-0.23,-0.52 -0.85,-1.1q-0.63,-0.57 -1.75,-1.32q-1.13,-0.75 -2.98,-1.9l0,0q-1.7,-1.05 -2.95,-1.95q-1.25,-0.9 -2.1,-1.83q-0.85,-0.92 -1.27,-1.97q-0.43,-1.05 -0.43,-2.45l0,0q0,-1.7 0.58,-3.13q0.57,-1.42 1.57,-2.42q1,-1 2.35,-1.58q1.35,-0.57 2.95,-0.57l0,0q1.35,0 2.8,0.42q1.45,0.43 2.55,1.13l0,0l1,-1.05l0.95,0l0,7.2l-1.3,0q-1.1,-3.05 -2.4,-4.35q-1.3,-1.3 -3.2,-1.3l0,0q-1.7,0 -2.72,0.9q-1.03,0.9 -1.03,2.5l0,0q0,0.85 0.28,1.47q0.27,0.63 0.87,1.23q0.6,0.6 1.53,1.22q0.92,0.63 2.22,1.43l0,0q2.15,1.35 3.68,2.4q1.52,1.05 2.47,2.07q0.95,1.03 1.4,2.13q0.45,1.1 0.45,2.5l0,0q0,3.55 -2.3,5.57q-2.3,2.03 -6.05,2.03l0,0q-3.9,0 -6.7,-2.25l0,0zm43.15,-6l-0.85,7.75l-24,0l0,-0.2l17.3,-24.2l-5.55,0q-2.15,0 -3.52,0.17q-1.38,0.18 -2.25,0.7q-0.88,0.53 -1.33,1.45q-0.45,0.93 -0.7,2.48l0,0l-1.6,0l0.8,-6.9l21.5,0l0,0.2l-17.05,24l5.85,0q2.55,0 4.23,-0.2q1.67,-0.2 2.75,-0.8q1.07,-0.6 1.7,-1.65q0.62,-1.05 1.07,-2.8l0,0l1.65,0z" vector-effect="non-scaling-stroke"/>
   </g>
  </g>
 </g>
</svg>